<?xml version="1.0" encoding="UTF-8" standalone="no"?>
<!DOCTYPE svg PUBLIC "-//W3C//DTD SVG 1.1//EN"
 "http://www.w3.org/Graphics/SVG/1.1/DTD/svg11.dtd">
<!-- Generated by graphviz version 2.40.1 (20161225.0304)
 -->
<!-- Title: G Pages: 1 -->
<svg width="184pt" height="501pt"
 viewBox="0.00 0.00 184.00 501.00" xmlns="http://www.w3.org/2000/svg" xmlns:xlink="http://www.w3.org/1999/xlink">
<g id="graph0" class="graph" transform="scale(1 1) rotate(0) translate(4 497)">
<title>G</title>
<polygon fill="#ffffff" stroke="transparent" points="-4,4 -4,-497 180,-497 180,4 -4,4"/>
<g id="clust1" class="cluster">
<title>cluster_0</title>
<polygon fill="none" stroke="#000000" points="8,-8 8,-415 168,-415 168,-8 8,-8"/>
<text text-anchor="middle" x="88" y="-399.8" font-family="Times,serif" font-size="14.00" fill="#000000">region 1</text>
</g>
<g id="clust2" class="cluster">
<title>cluster_1</title>
<polygon fill="none" stroke="#000000" points="25,-16 25,-208 152,-208 152,-16 25,-16"/>
<text text-anchor="middle" x="88.5" y="-192.8" font-family="Times,serif" font-size="14.00" fill="#000000">region 2</text>
</g>
<!-- init1 -->
<g id="node1" class="node">
<title>init1</title>
<polygon fill="none" stroke="#000000" points="111,-493 41,-493 41,-423 111,-423 111,-493"/>
<text text-anchor="middle" x="76" y="-461.8" font-family="Times,serif" font-size="14.00" fill="#000000">var0 = 12</text>
<text text-anchor="middle" x="76" y="-446.8" font-family="Times,serif" font-size="14.00" fill="#000000">i = 0</text>
</g>
<!-- cond1 -->
<g id="node3" class="node">
<title>cond1</title>
<polygon fill="none" stroke="#000000" points="107,-384 45,-384 45,-322 107,-322 107,-384"/>
<text text-anchor="middle" x="76" y="-349.3" font-family="Times,serif" font-size="14.00" fill="#000000">if i &lt; 10</text>
</g>
<!-- init1&#45;&gt;cond1 -->
<g id="edge1" class="edge">
<title>init1&#45;&gt;cond1</title>
<path fill="none" stroke="#000000" d="M76,-422.7444C76,-413.5565 76,-403.5758 76,-394.1136"/>
<polygon fill="#000000" stroke="#000000" points="79.5001,-394.1116 76,-384.1116 72.5001,-394.1117 79.5001,-394.1116"/>
</g>
<!-- end -->
<g id="node2" class="node">
<title>end</title>
<polygon fill="none" stroke="#000000" points="52,-269 16,-269 16,-233 52,-233 52,-269"/>
<text text-anchor="middle" x="34" y="-247.3" font-family="Times,serif" font-size="14.00" fill="#000000">end</text>
</g>
<!-- cond1&#45;&gt;end -->
<g id="edge3" class="edge">
<title>cond1&#45;&gt;end</title>
<path fill="none" stroke="#000000" d="M63.1704,-321.8424C57.5186,-308.1167 50.9314,-292.1192 45.4483,-278.8029"/>
<polygon fill="#000000" stroke="#000000" points="48.5482,-277.1387 41.5042,-269.2245 42.0754,-279.804 48.5482,-277.1387"/>
</g>
<!-- init2 -->
<g id="node4" class="node">
<title>init2</title>
<polygon fill="none" stroke="#000000" points="140,-286 70,-286 70,-216 140,-216 140,-286"/>
<text text-anchor="middle" x="105" y="-254.8" font-family="Times,serif" font-size="14.00" fill="#000000">var1 = 42</text>
<text text-anchor="middle" x="105" y="-239.8" font-family="Times,serif" font-size="14.00" fill="#000000">j = 0</text>
</g>
<!-- cond1&#45;&gt;init2 -->
<g id="edge2" class="edge">
<title>cond1&#45;&gt;init2</title>
<path fill="none" stroke="#000000" d="M84.8585,-321.8424C87.1822,-313.6696 89.7348,-304.6913 92.2192,-295.9532"/>
<polygon fill="#000000" stroke="#000000" points="95.611,-296.8214 94.9792,-286.2454 88.8778,-294.907 95.611,-296.8214"/>
</g>
<!-- cond2 -->
<g id="node6" class="node">
<title>cond2</title>
<polygon fill="none" stroke="#000000" points="136,-177 74,-177 74,-115 136,-115 136,-177"/>
<text text-anchor="middle" x="105" y="-142.3" font-family="Times,serif" font-size="14.00" fill="#000000">if j &lt; 10</text>
</g>
<!-- init2&#45;&gt;cond2 -->
<g id="edge4" class="edge">
<title>init2&#45;&gt;cond2</title>
<path fill="none" stroke="#000000" d="M105,-215.7444C105,-206.5565 105,-196.5758 105,-187.1136"/>
<polygon fill="#000000" stroke="#000000" points="108.5001,-187.1116 105,-177.1116 101.5001,-187.1117 108.5001,-187.1116"/>
</g>
<!-- body1 -->
<g id="node5" class="node">
<title>body1</title>
<polygon fill="none" stroke="#000000" points="70.5,-70 33.5,-70 33.5,-33 70.5,-33 70.5,-70"/>
<text text-anchor="middle" x="52" y="-47.8" font-family="Times,serif" font-size="14.00" fill="#000000">i++</text>
</g>
<!-- body1&#45;&gt;cond1 -->
<g id="edge5" class="edge">
<title>body1&#45;&gt;cond1</title>
<path fill="none" stroke="#000000" d="M69.4206,-70.0145C72.7892,-73.1799 76.396,-76.3105 80,-79 106.4667,-98.7505 127.6744,-86.8861 145,-115 149.8626,-122.8904 156.9135,-267.9955 149,-286 141.8921,-302.1716 128.7408,-316.1498 115.538,-327.0924"/>
<polygon fill="#000000" stroke="#000000" points="113.0711,-324.5792 107.3644,-333.5058 117.3922,-330.0863 113.0711,-324.5792"/>
</g>
<!-- cond2&#45;&gt;body1 -->
<g id="edge7" class="edge">
<title>cond2&#45;&gt;body1</title>
<path fill="none" stroke="#000000" d="M87.4989,-114.7953C81.0446,-103.287 73.782,-90.3377 67.5153,-79.164"/>
<polygon fill="#000000" stroke="#000000" points="70.4694,-77.2762 62.525,-70.2664 64.3641,-80.7004 70.4694,-77.2762"/>
</g>
<!-- body2 -->
<g id="node7" class="node">
<title>body2</title>
<polygon fill="none" stroke="#000000" points="143.5,-79 88.5,-79 88.5,-24 143.5,-24 143.5,-79"/>
<text text-anchor="middle" x="116" y="-55.3" font-family="Times,serif" font-size="14.00" fill="#000000">print(i)</text>
<text text-anchor="middle" x="116" y="-40.3" font-family="Times,serif" font-size="14.00" fill="#000000">j++</text>
</g>
<!-- cond2&#45;&gt;body2 -->
<g id="edge6" class="edge">
<title>cond2&#45;&gt;body2</title>
<path fill="none" stroke="#000000" d="M102.2408,-114.7953C102.8137,-106.616 103.7721,-97.7088 104.9816,-89.2285"/>
<polygon fill="#000000" stroke="#000000" points="108.4666,-89.5979 106.5725,-79.1738 101.5527,-88.504 108.4666,-89.5979"/>
</g>
<!-- body2&#45;&gt;cond2 -->
<g id="edge8" class="edge">
<title>body2&#45;&gt;cond2</title>
<path fill="none" stroke="#000000" d="M118.9849,-79.1738C118.5224,-87.2033 117.6458,-96.1491 116.494,-104.8177"/>
<polygon fill="#000000" stroke="#000000" points="113.019,-104.3918 115.0238,-114.7953 119.9443,-105.4123 113.019,-104.3918"/>
</g>
</g>
</svg>
