<?xml version="1.0" encoding="UTF-8" standalone="no"?>
<!DOCTYPE svg PUBLIC "-//W3C//DTD SVG 1.1//EN"
 "http://www.w3.org/Graphics/SVG/1.1/DTD/svg11.dtd">
<!-- Generated by graphviz version 2.40.1 (20161225.0304)
 -->
<!-- Title: %3 Pages: 1 -->
<svg width="189pt" height="548pt"
 viewBox="0.00 0.00 189.00 548.00" xmlns="http://www.w3.org/2000/svg" xmlns:xlink="http://www.w3.org/1999/xlink">
<g id="graph0" class="graph" transform="scale(1 1) rotate(0) translate(4 544)">
<title>%3</title>
<polygon fill="#ffffff" stroke="transparent" points="-4,4 -4,-544 185,-544 185,4 -4,4"/>
<!-- zero -->
<g id="node1" class="node">
<title>zero</title>
<ellipse fill="none" stroke="#000000" cx="91" cy="-522" rx="27" ry="18"/>
<text text-anchor="middle" x="91" y="-518.3" font-family="Times,serif" font-size="14.00" fill="#000000">A</text>
</g>
<!-- a -->
<g id="node2" class="node">
<title>a</title>
<ellipse fill="none" stroke="#000000" cx="91" cy="-450" rx="27" ry="18"/>
<text text-anchor="middle" x="91" y="-446.3" font-family="Times,serif" font-size="14.00" fill="#000000">B</text>
</g>
<!-- zero&#45;&gt;a -->
<g id="edge1" class="edge">
<title>zero&#45;&gt;a</title>
<path fill="none" stroke="#000000" d="M91,-503.8314C91,-496.131 91,-486.9743 91,-478.4166"/>
<polygon fill="#000000" stroke="#000000" points="94.5001,-478.4132 91,-468.4133 87.5001,-478.4133 94.5001,-478.4132"/>
</g>
<!-- b -->
<g id="node3" class="node">
<title>b</title>
<ellipse fill="none" stroke="#000000" cx="91" cy="-378" rx="27" ry="18"/>
<text text-anchor="middle" x="91" y="-374.3" font-family="Times,serif" font-size="14.00" fill="#000000">C</text>
</g>
<!-- a&#45;&gt;b -->
<g id="edge2" class="edge">
<title>a&#45;&gt;b</title>
<path fill="none" stroke="#000000" d="M91,-431.8314C91,-424.131 91,-414.9743 91,-406.4166"/>
<polygon fill="#000000" stroke="#000000" points="94.5001,-406.4132 91,-396.4133 87.5001,-406.4133 94.5001,-406.4132"/>
</g>
<!-- c -->
<g id="node4" class="node">
<title>c</title>
<ellipse fill="none" stroke="#000000" cx="55" cy="-306" rx="27" ry="18"/>
<text text-anchor="middle" x="55" y="-302.3" font-family="Times,serif" font-size="14.00" fill="#000000">D</text>
</g>
<!-- b&#45;&gt;c -->
<g id="edge3" class="edge">
<title>b&#45;&gt;c</title>
<path fill="none" stroke="#000000" d="M82.2854,-360.5708C78.0403,-352.0807 72.8464,-341.6929 68.1337,-332.2674"/>
<polygon fill="#000000" stroke="#000000" points="71.237,-330.6477 63.6343,-323.2687 64.976,-333.7782 71.237,-330.6477"/>
</g>
<!-- c2 -->
<g id="node10" class="node">
<title>c2</title>
<ellipse fill="none" stroke="#000000" cx="127" cy="-306" rx="27" ry="18"/>
<text text-anchor="middle" x="127" y="-302.3" font-family="Times,serif" font-size="14.00" fill="#000000">J</text>
</g>
<!-- b&#45;&gt;c2 -->
<g id="edge4" class="edge">
<title>b&#45;&gt;c2</title>
<path fill="none" stroke="#000000" d="M99.7146,-360.5708C103.9597,-352.0807 109.1536,-341.6929 113.8663,-332.2674"/>
<polygon fill="#000000" stroke="#000000" points="117.024,-333.7782 118.3657,-323.2687 110.763,-330.6477 117.024,-333.7782"/>
</g>
<!-- d -->
<g id="node5" class="node">
<title>d</title>
<ellipse fill="none" stroke="#000000" cx="55" cy="-234" rx="27" ry="18"/>
<text text-anchor="middle" x="55" y="-230.3" font-family="Times,serif" font-size="14.00" fill="#000000">E</text>
</g>
<!-- c&#45;&gt;d -->
<g id="edge5" class="edge">
<title>c&#45;&gt;d</title>
<path fill="none" stroke="#000000" d="M55,-287.8314C55,-280.131 55,-270.9743 55,-262.4166"/>
<polygon fill="#000000" stroke="#000000" points="58.5001,-262.4132 55,-252.4133 51.5001,-262.4133 58.5001,-262.4132"/>
</g>
<!-- end -->
<g id="node6" class="node">
<title>end</title>
<ellipse fill="none" stroke="#000000" cx="127" cy="-162" rx="27" ry="18"/>
<text text-anchor="middle" x="127" y="-158.3" font-family="Times,serif" font-size="14.00" fill="#000000">F</text>
</g>
<!-- d&#45;&gt;end -->
<g id="edge7" class="edge">
<title>d&#45;&gt;end</title>
<path fill="none" stroke="#000000" d="M70.2693,-218.7307C80.197,-208.803 93.3153,-195.6847 104.4363,-184.5637"/>
<polygon fill="#000000" stroke="#000000" points="107.1564,-186.7933 111.7527,-177.2473 102.2067,-181.8436 107.1564,-186.7933"/>
</g>
<!-- z -->
<g id="node7" class="node">
<title>z</title>
<ellipse fill="none" stroke="#000000" cx="55" cy="-162" rx="27" ry="18"/>
<text text-anchor="middle" x="55" y="-158.3" font-family="Times,serif" font-size="14.00" fill="#000000">G</text>
</g>
<!-- d&#45;&gt;z -->
<g id="edge6" class="edge">
<title>d&#45;&gt;z</title>
<path fill="none" stroke="#000000" d="M55,-215.8314C55,-208.131 55,-198.9743 55,-190.4166"/>
<polygon fill="#000000" stroke="#000000" points="58.5001,-190.4132 55,-180.4133 51.5001,-190.4133 58.5001,-190.4132"/>
</g>
<!-- z2 -->
<g id="node8" class="node">
<title>z2</title>
<ellipse fill="none" stroke="#000000" cx="55" cy="-90" rx="27" ry="18"/>
<text text-anchor="middle" x="55" y="-86.3" font-family="Times,serif" font-size="14.00" fill="#000000">H</text>
</g>
<!-- z&#45;&gt;z2 -->
<g id="edge8" class="edge">
<title>z&#45;&gt;z2</title>
<path fill="none" stroke="#000000" d="M55,-143.8314C55,-136.131 55,-126.9743 55,-118.4166"/>
<polygon fill="#000000" stroke="#000000" points="58.5001,-118.4132 55,-108.4133 51.5001,-118.4133 58.5001,-118.4132"/>
</g>
<!-- z3 -->
<g id="node9" class="node">
<title>z3</title>
<ellipse fill="none" stroke="#000000" cx="27" cy="-18" rx="27" ry="18"/>
<text text-anchor="middle" x="27" y="-14.3" font-family="Times,serif" font-size="14.00" fill="#000000">I</text>
</g>
<!-- z2&#45;&gt;z3 -->
<g id="edge9" class="edge">
<title>z2&#45;&gt;z3</title>
<path fill="none" stroke="#000000" d="M48.222,-72.5708C45.0128,-64.3187 41.1065,-54.2738 37.5242,-45.0623"/>
<polygon fill="#000000" stroke="#000000" points="40.6992,-43.5697 33.8126,-35.5182 34.1752,-46.1069 40.6992,-43.5697"/>
</g>
<!-- z3&#45;&gt;a -->
<g id="edge10" class="edge">
<title>z3&#45;&gt;a</title>
<path fill="none" stroke="#000000" d="M21.4056,-35.9823C13.4971,-63.0397 0,-115.9615 0,-162 0,-306 0,-306 0,-306 0,-355.7957 39.3674,-402.3828 66.316,-428.44"/>
<polygon fill="#000000" stroke="#000000" points="64.1959,-431.2503 73.8836,-435.5398 68.9854,-426.1452 64.1959,-431.2503"/>
</g>
<!-- d2 -->
<g id="node11" class="node">
<title>d2</title>
<ellipse fill="none" stroke="#000000" cx="154" cy="-234" rx="27" ry="18"/>
<text text-anchor="middle" x="154" y="-230.3" font-family="Times,serif" font-size="14.00" fill="#000000">K</text>
</g>
<!-- c2&#45;&gt;d2 -->
<g id="edge11" class="edge">
<title>c2&#45;&gt;d2</title>
<path fill="none" stroke="#000000" d="M133.6742,-288.2022C136.7476,-280.0064 140.4616,-270.1024 143.8695,-261.0145"/>
<polygon fill="#000000" stroke="#000000" points="147.1685,-262.1853 147.4026,-251.593 140.6142,-259.7274 147.1685,-262.1853"/>
</g>
<!-- d2&#45;&gt;a -->
<g id="edge12" class="edge">
<title>d2&#45;&gt;a</title>
<path fill="none" stroke="#000000" d="M159.198,-251.8179C163.7513,-270.1411 168.8085,-299.3946 163,-324 153.8234,-362.8728 128.4012,-401.9199 110.3732,-426.0183"/>
<polygon fill="#000000" stroke="#000000" points="107.4139,-424.1258 104.1096,-434.1923 112.9701,-428.3836 107.4139,-424.1258"/>
</g>
</g>
</svg>
