<?xml version="1.0" encoding="UTF-8" standalone="no"?>
<!DOCTYPE svg PUBLIC "-//W3C//DTD SVG 1.1//EN"
 "http://www.w3.org/Graphics/SVG/1.1/DTD/svg11.dtd">
<!-- Generated by graphviz version 2.40.1 (20161225.0304)
 -->
<!-- Title: %3 Pages: 1 -->
<svg width="586pt" height="633pt"
 viewBox="0.00 0.00 586.00 633.38" xmlns="http://www.w3.org/2000/svg" xmlns:xlink="http://www.w3.org/1999/xlink">
<g id="graph0" class="graph" transform="scale(1 1) rotate(0) translate(36 597.3829)">
<title>%3</title>
<polygon fill="#ffffff" stroke="transparent" points="-36,36 -36,-597.3829 550,-597.3829 550,36 -36,36"/>
<g id="clust1" class="cluster">
<title>clusterStatic</title>
<polygon fill="none" stroke="#000000" points="8,-8 8,-553.3829 506,-553.3829 506,-8 8,-8"/>
<text text-anchor="middle" x="257" y="-15.8" font-family="Times,serif" font-size="14.00" fill="#000000">Static</text>
</g>
<g id="clust2" class="cluster">
<title>clusterPreLoop</title>
<polygon fill="none" stroke="#000000" points="16,-39 16,-433.2872 284,-433.2872 284,-39 16,-39"/>
<text text-anchor="middle" x="150" y="-46.8" font-family="Times,serif" font-size="14.00" fill="#000000">Preloop</text>
</g>
<g id="clust3" class="cluster">
<title>cluster_0</title>
<polygon fill="none" stroke="#000000" points="46,-70 46,-325.2872 276,-325.2872 276,-70 46,-70"/>
<text text-anchor="middle" x="161" y="-77.8" font-family="Times,serif" font-size="14.00" fill="#000000">Inside Loop</text>
</g>
<!-- _0 -->
<g id="node1" class="node">
<title>_0</title>
<ellipse fill="#c0c0c0" stroke="#000000" cx="141" cy="-521.3351" rx="18" ry="18"/>
<text text-anchor="middle" x="141" y="-517.6351" font-family="Times,serif" font-size="14.00" fill="#000000">0</text>
</g>
<!-- _1 -->
<g id="node2" class="node">
<title>_1</title>
<ellipse fill="#c0c0c0" stroke="#000000" cx="249" cy="-521.3351" rx="18" ry="18"/>
<text text-anchor="middle" x="249" y="-517.6351" font-family="Times,serif" font-size="14.00" fill="#000000">1</text>
</g>
<!-- _48 -->
<g id="node3" class="node">
<title>_48</title>
<ellipse fill="#c0c0c0" stroke="#000000" cx="358" cy="-521.3351" rx="19.4965" ry="19.4965"/>
<text text-anchor="middle" x="358" y="-517.6351" font-family="Times,serif" font-size="14.00" fill="#000000">48</text>
</g>
<!-- _300 -->
<g id="node4" class="node">
<title>_300</title>
<ellipse fill="#c0c0c0" stroke="#000000" cx="474" cy="-521.3351" rx="24.0958" ry="24.0958"/>
<text text-anchor="middle" x="474" y="-517.6351" font-family="Times,serif" font-size="14.00" fill="#000000">300</text>
</g>
<!-- b -->
<g id="node5" class="node">
<title>b</title>
<ellipse fill="#00ff00" stroke="#000000" cx="150" cy="-407.2872" rx="18" ry="18"/>
<text text-anchor="middle" x="150" y="-403.5872" font-family="Times,serif" font-size="14.00" fill="#000000">b</text>
</g>
<!-- b&#45;&gt;_0 -->
<g id="edge2" class="edge">
<title>b&#45;&gt;_0</title>
<path fill="none" stroke="#000000" d="M148.5739,-425.3584C147.1323,-443.6271 144.8843,-472.1131 143.2114,-493.3121"/>
<polygon fill="#000000" stroke="#000000" points="139.717,-493.104 142.4194,-503.3484 146.6953,-493.6548 139.717,-493.104"/>
</g>
<!-- a -->
<g id="node6" class="node">
<title>a</title>
<ellipse fill="#ff0000" stroke="#000000" cx="42" cy="-407.2872" rx="18" ry="18"/>
<text text-anchor="middle" x="42" y="-403.5872" font-family="Times,serif" font-size="14.00" fill="#000000">a</text>
</g>
<!-- a&#45;&gt;_0 -->
<g id="edge1" class="edge">
<title>a&#45;&gt;_0</title>
<path fill="none" stroke="#000000" d="M54.1393,-421.2717C71.2285,-440.9584 102.5211,-477.0074 122.5125,-500.0375"/>
<polygon fill="#000000" stroke="#000000" points="119.8722,-502.3351 129.0706,-507.5924 125.1584,-497.7463 119.8722,-502.3351"/>
</g>
<!-- c -->
<g id="node7" class="node">
<title>c</title>
<ellipse fill="#0000ff" stroke="#000000" cx="258" cy="-407.2872" rx="18" ry="18"/>
<text text-anchor="middle" x="258" y="-403.5872" font-family="Times,serif" font-size="14.00" fill="#000000">c</text>
</g>
<!-- c&#45;&gt;_0 -->
<g id="edge3" class="edge">
<title>c&#45;&gt;_0</title>
<path fill="none" stroke="#000000" d="M245.0319,-419.9281C224.7384,-439.7096 185.3139,-478.1393 161.2541,-501.592"/>
<polygon fill="#000000" stroke="#000000" points="158.744,-499.1511 154.0262,-508.6376 163.6301,-504.1637 158.744,-499.1511"/>
</g>
<!-- b2 -->
<g id="node8" class="node">
<title>b2</title>
<ellipse fill="#00ff00" stroke="#000000" cx="226" cy="-275.0409" rx="42.4939" ry="42.4939"/>
<text text-anchor="middle" x="226" y="-271.3409" font-family="Times,serif" font-size="14.00" fill="#000000">48 * 300</text>
</g>
<!-- b2&#45;&gt;_48 -->
<g id="edge4" class="edge">
<title>b2&#45;&gt;_48</title>
<path fill="none" stroke="#000000" d="M264.3149,-293.3408C298.6132,-312.0835 346.6793,-344.7691 368,-389.2872 383.7621,-422.1988 376.1347,-465.0602 368.0622,-492.8819"/>
<polygon fill="#000000" stroke="#000000" points="364.619,-492.1681 364.9943,-502.7563 371.3038,-494.245 364.619,-492.1681"/>
</g>
<!-- b2&#45;&gt;_300 -->
<g id="edge5" class="edge">
<title>b2&#45;&gt;_300</title>
<path fill="none" stroke="#000000" d="M263.2981,-294.9597C299.0145,-315.3101 352.9479,-349.5048 391,-389.2872 420.091,-419.7009 444.453,-461.86 459.1047,-490.2907"/>
<polygon fill="#000000" stroke="#000000" points="456.059,-492.0238 463.6941,-499.3693 462.3062,-488.8658 456.059,-492.0238"/>
</g>
<!-- c2 -->
<g id="node9" class="node">
<title>c2</title>
<ellipse fill="#add8e6" stroke="#000000" cx="83" cy="-275.0409" rx="29.4969" ry="29.4969"/>
<text text-anchor="middle" x="83" y="-271.3409" font-family="Times,serif" font-size="14.00" fill="#000000">c + 1</text>
</g>
<!-- c2&#45;&gt;_1 -->
<g id="edge7" class="edge">
<title>c2&#45;&gt;_1</title>
<path fill="none" stroke="#000000" d="M105.1175,-294.5033C117.2295,-304.5359 132.8274,-316.4793 148,-325.2872 212.1015,-362.4991 260.8574,-327.6349 302,-389.2872 325.9832,-425.2261 292.454,-473.696 268.8052,-500.7976"/>
<polygon fill="#000000" stroke="#000000" points="265.9662,-498.7191 261.8577,-508.4849 271.1595,-503.4126 265.9662,-498.7191"/>
</g>
<!-- c2&#45;&gt;c -->
<g id="edge6" class="edge">
<title>c2&#45;&gt;c</title>
<path fill="none" stroke="#000000" d="M106.0885,-293.0458C118.4754,-302.6656 134.0265,-314.6793 148,-325.2872 177.9803,-348.0466 212.8618,-373.9529 235.1703,-390.449"/>
<polygon fill="#000000" stroke="#000000" points="233.2259,-393.3641 243.3486,-396.4915 237.3855,-387.734 233.2259,-393.3641"/>
</g>
<!-- d -->
<g id="node10" class="node">
<title>d</title>
<ellipse fill="#0000ff" stroke="#000000" cx="84" cy="-130.8973" rx="29.795" ry="29.795"/>
<text text-anchor="middle" x="84" y="-127.1973" font-family="Times,serif" font-size="14.00" fill="#000000">d + 1</text>
</g>
<!-- d&#45;&gt;c2 -->
<g id="edge8" class="edge">
<title>d&#45;&gt;c2</title>
<path fill="none" stroke="#000000" d="M83.7904,-161.1146C83.6414,-182.5914 83.4397,-211.6567 83.2774,-235.0537"/>
<polygon fill="#000000" stroke="#000000" points="79.7755,-235.3332 83.2059,-245.3573 86.7753,-235.3818 79.7755,-235.3332"/>
</g>
</g>
</svg>
