<?xml version="1.0" encoding="UTF-8" standalone="no"?>
<!DOCTYPE svg PUBLIC "-//W3C//DTD SVG 1.1//EN"
 "http://www.w3.org/Graphics/SVG/1.1/DTD/svg11.dtd">
<!-- Generated by graphviz version 2.40.1 (20161225.0304)
 -->
<!-- Title: %3 Pages: 1 -->
<svg width="586pt" height="502pt"
 viewBox="0.00 0.00 586.00 501.59" xmlns="http://www.w3.org/2000/svg" xmlns:xlink="http://www.w3.org/1999/xlink">
<g id="graph0" class="graph" transform="scale(1 1) rotate(0) translate(36 465.5882)">
<title>%3</title>
<polygon fill="#ffffff" stroke="transparent" points="-36,36 -36,-465.5882 550,-465.5882 550,36 -36,36"/>
<g id="clust1" class="cluster">
<title>clusterStatic</title>
<polygon fill="none" stroke="#000000" points="8,-8 8,-421.5882 506,-421.5882 506,-8 8,-8"/>
<text text-anchor="middle" x="257" y="-15.8" font-family="Times,serif" font-size="14.00" fill="#000000">Static</text>
</g>
<g id="clust2" class="cluster">
<title>clusterPreLoop</title>
<polygon fill="none" stroke="#000000" points="16,-39 16,-301.4925 284,-301.4925 284,-39 16,-39"/>
<text text-anchor="middle" x="150" y="-46.8" font-family="Times,serif" font-size="14.00" fill="#000000">Preloop</text>
</g>
<g id="clust3" class="cluster">
<title>cluster_0</title>
<polygon fill="none" stroke="#000000" points="46,-70 46,-193.4925 276,-193.4925 276,-70 46,-70"/>
<text text-anchor="middle" x="161" y="-77.8" font-family="Times,serif" font-size="14.00" fill="#000000">Inside Loop</text>
</g>
<!-- _0 -->
<g id="node1" class="node">
<title>_0</title>
<ellipse fill="#c0c0c0" stroke="#000000" cx="141" cy="-389.5404" rx="18" ry="18"/>
<text text-anchor="middle" x="141" y="-385.8404" font-family="Times,serif" font-size="14.00" fill="#000000">0</text>
</g>
<!-- _1 -->
<g id="node2" class="node">
<title>_1</title>
<ellipse fill="#c0c0c0" stroke="#000000" cx="249" cy="-389.5404" rx="18" ry="18"/>
<text text-anchor="middle" x="249" y="-385.8404" font-family="Times,serif" font-size="14.00" fill="#000000">1</text>
</g>
<!-- _48 -->
<g id="node3" class="node">
<title>_48</title>
<ellipse fill="#c0c0c0" stroke="#000000" cx="358" cy="-389.5404" rx="19.4965" ry="19.4965"/>
<text text-anchor="middle" x="358" y="-385.8404" font-family="Times,serif" font-size="14.00" fill="#000000">48</text>
</g>
<!-- _300 -->
<g id="node4" class="node">
<title>_300</title>
<ellipse fill="#c0c0c0" stroke="#000000" cx="474" cy="-389.5404" rx="24.0958" ry="24.0958"/>
<text text-anchor="middle" x="474" y="-385.8404" font-family="Times,serif" font-size="14.00" fill="#000000">300</text>
</g>
<!-- b -->
<g id="node5" class="node">
<title>b</title>
<ellipse fill="#00ff00" stroke="#000000" cx="150" cy="-275.4925" rx="18" ry="18"/>
<text text-anchor="middle" x="150" y="-271.7925" font-family="Times,serif" font-size="14.00" fill="#000000">b</text>
</g>
<!-- b&#45;&gt;_0 -->
<g id="edge2" class="edge">
<title>b&#45;&gt;_0</title>
<path fill="none" stroke="#000000" d="M148.5739,-293.5637C147.1323,-311.8324 144.8843,-340.3184 143.2114,-361.5174"/>
<polygon fill="#000000" stroke="#000000" points="139.717,-361.3093 142.4194,-371.5537 146.6953,-361.8601 139.717,-361.3093"/>
</g>
<!-- a -->
<g id="node6" class="node">
<title>a</title>
<ellipse fill="#ff0000" stroke="#000000" cx="42" cy="-275.4925" rx="18" ry="18"/>
<text text-anchor="middle" x="42" y="-271.7925" font-family="Times,serif" font-size="14.00" fill="#000000">a</text>
</g>
<!-- a&#45;&gt;_0 -->
<g id="edge1" class="edge">
<title>a&#45;&gt;_0</title>
<path fill="none" stroke="#000000" d="M54.1393,-289.477C71.2285,-309.1637 102.5211,-345.2127 122.5125,-368.2428"/>
<polygon fill="#000000" stroke="#000000" points="119.8722,-370.5404 129.0706,-375.7977 125.1584,-365.9516 119.8722,-370.5404"/>
</g>
<!-- c -->
<g id="node7" class="node">
<title>c</title>
<ellipse fill="#0000ff" stroke="#000000" cx="258" cy="-275.4925" rx="18" ry="18"/>
<text text-anchor="middle" x="258" y="-271.7925" font-family="Times,serif" font-size="14.00" fill="#000000">c</text>
</g>
<!-- c&#45;&gt;_0 -->
<g id="edge3" class="edge">
<title>c&#45;&gt;_0</title>
<path fill="none" stroke="#000000" d="M245.0319,-288.1334C224.7384,-307.9149 185.3139,-346.3446 161.2541,-369.7973"/>
<polygon fill="#000000" stroke="#000000" points="158.744,-367.3564 154.0262,-376.8429 163.6301,-372.369 158.744,-367.3564"/>
</g>
<!-- b2 -->
<g id="node8" class="node">
<title>b2</title>
<ellipse fill="#00ff00" stroke="#000000" cx="226" cy="-143.2463" rx="42.4939" ry="42.4939"/>
<text text-anchor="middle" x="226" y="-139.5463" font-family="Times,serif" font-size="14.00" fill="#000000">48 * 300</text>
</g>
<!-- b2&#45;&gt;_48 -->
<g id="edge4" class="edge">
<title>b2&#45;&gt;_48</title>
<path fill="none" stroke="#000000" d="M264.3149,-161.5461C298.6132,-180.2888 346.6793,-212.9744 368,-257.4925 383.7621,-290.4041 376.1347,-333.2655 368.0622,-361.0872"/>
<polygon fill="#000000" stroke="#000000" points="364.619,-360.3734 364.9943,-370.9616 371.3038,-362.4503 364.619,-360.3734"/>
</g>
<!-- b2&#45;&gt;_300 -->
<g id="edge5" class="edge">
<title>b2&#45;&gt;_300</title>
<path fill="none" stroke="#000000" d="M263.2981,-163.165C299.0145,-183.5154 352.9479,-217.7101 391,-257.4925 420.091,-287.9063 444.453,-330.0653 459.1047,-358.496"/>
<polygon fill="#000000" stroke="#000000" points="456.059,-360.2291 463.6941,-367.5746 462.3062,-357.0711 456.059,-360.2291"/>
</g>
<!-- c2 -->
<g id="node9" class="node">
<title>c2</title>
<ellipse fill="#0000ff" stroke="#000000" cx="83" cy="-143.2463" rx="29.4969" ry="29.4969"/>
<text text-anchor="middle" x="83" y="-139.5463" font-family="Times,serif" font-size="14.00" fill="#000000">c + 1</text>
</g>
<!-- c2&#45;&gt;_1 -->
<g id="edge7" class="edge">
<title>c2&#45;&gt;_1</title>
<path fill="none" stroke="#000000" d="M105.1175,-162.7086C117.2295,-172.7412 132.8274,-184.6846 148,-193.4925 212.1015,-230.7045 260.8574,-195.8402 302,-257.4925 325.9832,-293.4314 292.454,-341.9013 268.8052,-369.0029"/>
<polygon fill="#000000" stroke="#000000" points="265.9662,-366.9244 261.8577,-376.6902 271.1595,-371.6179 265.9662,-366.9244"/>
</g>
<!-- c2&#45;&gt;c -->
<g id="edge6" class="edge">
<title>c2&#45;&gt;c</title>
<path fill="none" stroke="#000000" d="M106.0885,-161.2511C118.4754,-170.8709 134.0265,-182.8846 148,-193.4925 177.9803,-216.2519 212.8618,-242.1582 235.1703,-258.6543"/>
<polygon fill="#000000" stroke="#000000" points="233.2259,-261.5694 243.3486,-264.6968 237.3855,-255.9394 233.2259,-261.5694"/>
</g>
</g>
</svg>
