<?xml version="1.0" encoding="UTF-8" standalone="no"?>
<!DOCTYPE svg PUBLIC "-//W3C//DTD SVG 1.1//EN"
 "http://www.w3.org/Graphics/SVG/1.1/DTD/svg11.dtd">
<!-- Generated by graphviz version 2.40.1 (20161225.0304)
 -->
<!-- Title: G Pages: 1 -->
<svg width="695pt" height="1045pt"
 viewBox="0.00 0.00 694.95 1045.00" xmlns="http://www.w3.org/2000/svg" xmlns:xlink="http://www.w3.org/1999/xlink">
<g id="graph0" class="graph" transform="scale(1 1) rotate(0) translate(36 1009)">
<title>G</title>
<polygon fill="#ffffff" stroke="transparent" points="-36,36 -36,-1009 658.948,-1009 658.948,36 -36,36"/>
<g id="clust1" class="cluster">
<title>cluster_0</title>
<polygon fill="none" stroke="#000000" points="207.6103,-8 207.6103,-263 583.6103,-263 583.6103,-8 207.6103,-8"/>
<text text-anchor="middle" x="395.6103" y="-247.8" font-family="Times,serif" font-size="14.00" fill="#000000">Before the loop</text>
</g>
<g id="clust2" class="cluster">
<title>cluster_3</title>
<polygon fill="none" stroke="#000000" points="81.6103,-188 81.6103,-965 187.6103,-965 187.6103,-188 81.6103,-188"/>
<text text-anchor="middle" x="134.6103" y="-949.8" font-family="Times,serif" font-size="14.00" fill="#000000">Unified loop</text>
</g>
<!-- 1 -->
<g id="node1" class="node">
<title>1</title>
<polygon fill="#00ff00" stroke="#000000" points="251.6103,-52 215.6103,-52 215.6103,-16 251.6103,-16 251.6103,-52"/>
<text text-anchor="middle" x="233.6103" y="-30.3" font-family="Times,serif" font-size="14.00" fill="#000000">1</text>
</g>
<!-- 2 -->
<g id="node2" class="node">
<title>2</title>
<polygon fill="#00ff00" stroke="#000000" points="467.6103,-52 431.6103,-52 431.6103,-16 467.6103,-16 467.6103,-52"/>
<text text-anchor="middle" x="449.6103" y="-30.3" font-family="Times,serif" font-size="14.00" fill="#000000">2</text>
</g>
<!-- 3 -->
<g id="node3" class="node">
<title>3</title>
<polygon fill="#00ff00" stroke="#000000" points="359.6103,-52 323.6103,-52 323.6103,-16 359.6103,-16 359.6103,-52"/>
<text text-anchor="middle" x="341.6103" y="-30.3" font-family="Times,serif" font-size="14.00" fill="#000000">3</text>
</g>
<!-- 4 -->
<g id="node4" class="node">
<title>4</title>
<polygon fill="#00ff00" stroke="#000000" points="575.6103,-52 539.6103,-52 539.6103,-16 575.6103,-16 575.6103,-52"/>
<text text-anchor="middle" x="557.6103" y="-30.3" font-family="Times,serif" font-size="14.00" fill="#000000">4</text>
</g>
<!-- a_out -->
<g id="node5" class="node">
<title>a_out</title>
<polygon fill="#d3d3d3" stroke="#000000" points="467.6103,-232 431.6103,-232 431.6103,-196 467.6103,-196 467.6103,-232"/>
<text text-anchor="middle" x="449.6103" y="-210.3" font-family="Times,serif" font-size="14.00" fill="#000000">0:a</text>
</g>
<!-- a_out&#45;&gt;1 -->
<g id="edge1" class="edge">
<title>a_out&#45;&gt;1</title>
<path fill="none" stroke="#000000" d="M431.5658,-198.9629C393.2894,-167.0659 303.8419,-92.5263 259.4896,-55.5661"/>
<polygon fill="#000000" stroke="#000000" points="261.6782,-52.834 251.7554,-49.1209 257.1969,-58.2116 261.6782,-52.834"/>
</g>
<!-- b_out -->
<g id="node6" class="node">
<title>b_out</title>
<polygon fill="#d3d3d3" stroke="#000000" points="359.6103,-232 323.6103,-232 323.6103,-196 359.6103,-196 359.6103,-232"/>
<text text-anchor="middle" x="341.6103" y="-210.3" font-family="Times,serif" font-size="14.00" fill="#000000">1:b</text>
</g>
<!-- b_out&#45;&gt;2 -->
<g id="edge2" class="edge">
<title>b_out&#45;&gt;2</title>
<path fill="none" stroke="#000000" d="M352.5602,-195.7501C371.6923,-163.8633 411.2834,-97.8781 433.5321,-60.7969"/>
<polygon fill="#000000" stroke="#000000" points="436.6481,-62.4063 438.7919,-52.0306 430.6457,-58.8048 436.6481,-62.4063"/>
</g>
<!-- c_out -->
<g id="node7" class="node">
<title>c_out</title>
<polygon fill="#d3d3d3" stroke="#000000" points="251.6103,-232 215.6103,-232 215.6103,-196 251.6103,-196 251.6103,-232"/>
<text text-anchor="middle" x="233.6103" y="-210.3" font-family="Times,serif" font-size="14.00" fill="#000000">2:c</text>
</g>
<!-- c_out&#45;&gt;3 -->
<g id="edge3" class="edge">
<title>c_out&#45;&gt;3</title>
<path fill="none" stroke="#000000" d="M244.5602,-195.7501C263.6923,-163.8633 303.2834,-97.8781 325.5321,-60.7969"/>
<polygon fill="#000000" stroke="#000000" points="328.6481,-62.4063 330.7919,-52.0306 322.6457,-58.8048 328.6481,-62.4063"/>
</g>
<!-- d_out -->
<g id="node8" class="node">
<title>d_out</title>
<polygon fill="#d3d3d3" stroke="#000000" points="575.6103,-232 539.6103,-232 539.6103,-196 575.6103,-196 575.6103,-232"/>
<text text-anchor="middle" x="557.6103" y="-210.3" font-family="Times,serif" font-size="14.00" fill="#000000">3:d</text>
</g>
<!-- d_out&#45;&gt;4 -->
<g id="edge4" class="edge">
<title>d_out&#45;&gt;4</title>
<path fill="none" stroke="#000000" d="M557.6103,-195.7501C557.6103,-164.2686 557.6103,-99.5502 557.6103,-62.2249"/>
<polygon fill="#000000" stroke="#000000" points="561.1104,-62.0306 557.6103,-52.0306 554.1104,-62.0306 561.1104,-62.0306"/>
</g>
<!-- a_unify -->
<g id="node9" class="node">
<title>a_unify</title>
<polygon fill="#d3d3d3" stroke="#000000" points="179.6103,-934 89.6103,-934 89.6103,-844 179.6103,-844 179.6103,-934"/>
<text text-anchor="middle" x="134.6103" y="-885.3" font-family="Times,serif" font-size="14.00" fill="#000000">0:a or (b + 1)</text>
</g>
<!-- a_unify&#45;&gt;1 -->
<g id="edge7" class="edge">
<title>a_unify&#45;&gt;1</title>
<path fill="none" stroke="#000000" d="M179.898,-850.5867C281.9095,-760.6223 527.3377,-524.0302 611.6103,-263 621.8513,-231.2788 630.2099,-215.6616 611.6103,-188 590.6389,-156.8111 344.8269,-71.553 261.2349,-43.2614"/>
<polygon fill="#000000" stroke="#000000" points="262.2442,-39.9081 251.65,-40.0267 260.0058,-46.5406 262.2442,-39.9081"/>
</g>
<!-- a_unify&#45;&gt;a_out -->
<g id="edge5" class="edge">
<title>a_unify&#45;&gt;a_out</title>
<path fill="none" stroke="#000000" d="M155.6447,-843.9262C215.9967,-714.6005 388.4905,-344.9709 436.8614,-241.319"/>
<polygon fill="#000000" stroke="#000000" points="440.0898,-242.6775 441.147,-232.1355 433.7465,-239.7173 440.0898,-242.6775"/>
</g>
<!-- b_unify -->
<g id="node10" class="node">
<title>b_unify</title>
<polygon fill="#d3d3d3" stroke="#000000" points="179.6103,-700 89.6103,-700 89.6103,-610 179.6103,-610 179.6103,-700"/>
<text text-anchor="middle" x="134.6103" y="-651.3" font-family="Times,serif" font-size="14.00" fill="#000000">1:b or (c + 1)</text>
</g>
<!-- a_unify&#45;&gt;b_unify -->
<g id="edge6" class="edge">
<title>a_unify&#45;&gt;b_unify</title>
<path fill="none" stroke="#000000" d="M134.6103,-843.8824C134.6103,-805.806 134.6103,-751.1461 134.6103,-710.4145"/>
<polygon fill="#000000" stroke="#000000" points="138.1104,-710.3776 134.6103,-700.3777 131.1104,-710.3777 138.1104,-710.3776"/>
</g>
<!-- b_unify&#45;&gt;1 -->
<g id="edge10" class="edge">
<title>b_unify&#45;&gt;1</title>
<path fill="none" stroke="#000000" d="M104.713,-609.8091C51.7209,-523.5594 -46.5997,-331.3107 25.6103,-188 63.8331,-112.1415 159.0374,-64.3381 206.2176,-44.5236"/>
<polygon fill="#000000" stroke="#000000" points="207.5874,-47.7448 215.5187,-40.7202 204.9379,-41.2656 207.5874,-47.7448"/>
</g>
<!-- b_unify&#45;&gt;b_out -->
<g id="edge8" class="edge">
<title>b_unify&#45;&gt;b_out</title>
<path fill="none" stroke="#000000" d="M155.7901,-609.8777C198.5886,-518.6983 294.2362,-314.9274 328.8213,-241.2462"/>
<polygon fill="#000000" stroke="#000000" points="332.0193,-242.67 333.1001,-232.1304 325.6826,-239.6956 332.0193,-242.67"/>
</g>
<!-- c_unify -->
<g id="node11" class="node">
<title>c_unify</title>
<polygon fill="#d3d3d3" stroke="#000000" points="179.6103,-466 89.6103,-466 89.6103,-376 179.6103,-376 179.6103,-466"/>
<text text-anchor="middle" x="134.6103" y="-417.3" font-family="Times,serif" font-size="14.00" fill="#000000">2:c or (d + 1)</text>
</g>
<!-- b_unify&#45;&gt;c_unify -->
<g id="edge9" class="edge">
<title>b_unify&#45;&gt;c_unify</title>
<path fill="none" stroke="#000000" d="M134.6103,-609.8824C134.6103,-571.806 134.6103,-517.1461 134.6103,-476.4145"/>
<polygon fill="#000000" stroke="#000000" points="138.1104,-476.3776 134.6103,-466.3777 131.1104,-476.3777 138.1104,-476.3776"/>
</g>
<!-- c_unify&#45;&gt;1 -->
<g id="edge13" class="edge">
<title>c_unify&#45;&gt;1</title>
<path fill="none" stroke="#000000" d="M98.4389,-375.7568C64.9845,-328.0566 24.5017,-251.2122 53.6103,-188 85.209,-119.3802 164.1374,-69.9459 206.2039,-47.4945"/>
<polygon fill="#000000" stroke="#000000" points="208.0723,-50.4677 215.3234,-42.7428 204.8377,-44.2598 208.0723,-50.4677"/>
</g>
<!-- c_unify&#45;&gt;c_out -->
<g id="edge11" class="edge">
<title>c_unify&#45;&gt;c_out</title>
<path fill="none" stroke="#000000" d="M156.2139,-375.8288C175.7877,-334.9019 204.0021,-275.908 220.4071,-241.6067"/>
<polygon fill="#000000" stroke="#000000" points="223.7432,-242.7433 224.9003,-232.2118 217.4282,-239.723 223.7432,-242.7433"/>
</g>
<!-- d_unify -->
<g id="node12" class="node">
<title>d_unify</title>
<polygon fill="#d3d3d3" stroke="#000000" points="125.6103,-232 89.6103,-232 89.6103,-196 125.6103,-196 125.6103,-232"/>
<text text-anchor="middle" x="107.6103" y="-210.3" font-family="Times,serif" font-size="14.00" fill="#000000">3:d</text>
</g>
<!-- c_unify&#45;&gt;d_unify -->
<g id="edge12" class="edge">
<title>c_unify&#45;&gt;d_unify</title>
<path fill="none" stroke="#000000" d="M128.7184,-375.8288C123.4259,-335.2532 115.8172,-276.9195 111.3271,-242.4955"/>
<polygon fill="#000000" stroke="#000000" points="114.7498,-241.6751 109.9857,-232.2118 107.8086,-242.5805 114.7498,-241.6751"/>
</g>
<!-- d_unify&#45;&gt;1 -->
<g id="edge15" class="edge">
<title>d_unify&#45;&gt;1</title>
<path fill="none" stroke="#000000" d="M120.3852,-195.7501C142.8006,-163.7282 189.2875,-97.3183 215.1813,-60.3271"/>
<polygon fill="#000000" stroke="#000000" points="218.1215,-62.2301 220.9889,-52.0306 212.3869,-58.2158 218.1215,-62.2301"/>
</g>
<!-- d_unify&#45;&gt;d_unify -->
<g id="edge14" class="edge">
<title>d_unify&#45;&gt;d_unify</title>
<path fill="none" stroke="#000000" d="M123.9631,-232.1583C155.29,-257.8457 197.6103,-251.793 197.6103,-214 197.6103,-179.4549 162.2513,-171.429 132.2493,-189.9224"/>
<polygon fill="#000000" stroke="#000000" points="130.0657,-187.1809 123.9631,-195.8417 134.1347,-192.8768 130.0657,-187.1809"/>
</g>
</g>
</svg>
