<?xml version="1.0" encoding="UTF-8" standalone="no"?>
<!DOCTYPE svg PUBLIC "-//W3C//DTD SVG 1.1//EN"
 "http://www.w3.org/Graphics/SVG/1.1/DTD/svg11.dtd">
<!-- Generated by graphviz version 2.40.1 (20161225.0304)
 -->
<!-- Title: G Pages: 1 -->
<svg width="900pt" height="703pt"
 viewBox="0.00 0.00 900.17 703.00" xmlns="http://www.w3.org/2000/svg" xmlns:xlink="http://www.w3.org/1999/xlink">
<g id="graph0" class="graph" transform="scale(1 1) rotate(0) translate(36 667)">
<title>G</title>
<polygon fill="#ffffff" stroke="transparent" points="-36,36 -36,-667 864.1738,-667 864.1738,36 -36,36"/>
<g id="clust1" class="cluster">
<title>cluster_0</title>
<polygon fill="none" stroke="#000000" points="80.1206,-8 80.1206,-263 456.1206,-263 456.1206,-8 80.1206,-8"/>
<text text-anchor="middle" x="268.1206" y="-247.8" font-family="Times,serif" font-size="14.00" fill="#000000">Before the loop</text>
</g>
<g id="clust2" class="cluster">
<title>cluster_1</title>
<polygon fill="none" stroke="#000000" points="251.1206,-368 251.1206,-443 627.1206,-443 627.1206,-368 251.1206,-368"/>
<text text-anchor="middle" x="439.1206" y="-427.8" font-family="Times,serif" font-size="14.00" fill="#000000">Right before the loop</text>
</g>
<g id="clust3" class="cluster">
<title>cluster_2</title>
<polygon fill="none" stroke="#000000" points="251.1206,-548 251.1206,-623 627.1206,-623 627.1206,-548 251.1206,-548"/>
<text text-anchor="middle" x="439.1206" y="-607.8" font-family="Times,serif" font-size="14.00" fill="#000000">Inside the loop</text>
</g>
<!-- 1 -->
<g id="node1" class="node">
<title>1</title>
<polygon fill="#00ff00" stroke="#000000" points="448.1206,-52 412.1206,-52 412.1206,-16 448.1206,-16 448.1206,-52"/>
<text text-anchor="middle" x="430.1206" y="-30.3" font-family="Times,serif" font-size="14.00" fill="#000000">1</text>
</g>
<!-- 2 -->
<g id="node2" class="node">
<title>2</title>
<polygon fill="#00ff00" stroke="#000000" points="232.1206,-52 196.1206,-52 196.1206,-16 232.1206,-16 232.1206,-52"/>
<text text-anchor="middle" x="214.1206" y="-30.3" font-family="Times,serif" font-size="14.00" fill="#000000">2</text>
</g>
<!-- 3 -->
<g id="node3" class="node">
<title>3</title>
<polygon fill="#00ff00" stroke="#000000" points="340.1206,-52 304.1206,-52 304.1206,-16 340.1206,-16 340.1206,-52"/>
<text text-anchor="middle" x="322.1206" y="-30.3" font-family="Times,serif" font-size="14.00" fill="#000000">3</text>
</g>
<!-- 4 -->
<g id="node4" class="node">
<title>4</title>
<polygon fill="#00ff00" stroke="#000000" points="124.1206,-52 88.1206,-52 88.1206,-16 124.1206,-16 124.1206,-52"/>
<text text-anchor="middle" x="106.1206" y="-30.3" font-family="Times,serif" font-size="14.00" fill="#000000">4</text>
</g>
<!-- a_out -->
<g id="node5" class="node">
<title>a_out</title>
<polygon fill="#d3d3d3" stroke="#000000" points="448.1206,-232 412.1206,-232 412.1206,-196 448.1206,-196 448.1206,-232"/>
<text text-anchor="middle" x="430.1206" y="-210.3" font-family="Times,serif" font-size="14.00" fill="#000000">a</text>
</g>
<!-- a_out&#45;&gt;1 -->
<g id="edge1" class="edge">
<title>a_out&#45;&gt;1</title>
<path fill="none" stroke="#000000" d="M430.1206,-195.7501C430.1206,-164.2686 430.1206,-99.5502 430.1206,-62.2249"/>
<polygon fill="#000000" stroke="#000000" points="433.6207,-62.0306 430.1206,-52.0306 426.6207,-62.0306 433.6207,-62.0306"/>
</g>
<!-- b_out -->
<g id="node6" class="node">
<title>b_out</title>
<polygon fill="#d3d3d3" stroke="#000000" points="232.1206,-232 196.1206,-232 196.1206,-196 232.1206,-196 232.1206,-232"/>
<text text-anchor="middle" x="214.1206" y="-210.3" font-family="Times,serif" font-size="14.00" fill="#000000">b</text>
</g>
<!-- b_out&#45;&gt;2 -->
<g id="edge2" class="edge">
<title>b_out&#45;&gt;2</title>
<path fill="none" stroke="#000000" d="M214.1206,-195.7501C214.1206,-164.2686 214.1206,-99.5502 214.1206,-62.2249"/>
<polygon fill="#000000" stroke="#000000" points="217.6207,-62.0306 214.1206,-52.0306 210.6207,-62.0306 217.6207,-62.0306"/>
</g>
<!-- c_out -->
<g id="node7" class="node">
<title>c_out</title>
<polygon fill="#d3d3d3" stroke="#000000" points="340.1206,-232 304.1206,-232 304.1206,-196 340.1206,-196 340.1206,-232"/>
<text text-anchor="middle" x="322.1206" y="-210.3" font-family="Times,serif" font-size="14.00" fill="#000000">c</text>
</g>
<!-- c_out&#45;&gt;3 -->
<g id="edge3" class="edge">
<title>c_out&#45;&gt;3</title>
<path fill="none" stroke="#000000" d="M322.1206,-195.7501C322.1206,-164.2686 322.1206,-99.5502 322.1206,-62.2249"/>
<polygon fill="#000000" stroke="#000000" points="325.6207,-62.0306 322.1206,-52.0306 318.6207,-62.0306 325.6207,-62.0306"/>
</g>
<!-- d_out -->
<g id="node8" class="node">
<title>d_out</title>
<polygon fill="#d3d3d3" stroke="#000000" points="124.1206,-232 88.1206,-232 88.1206,-196 124.1206,-196 124.1206,-232"/>
<text text-anchor="middle" x="106.1206" y="-210.3" font-family="Times,serif" font-size="14.00" fill="#000000">d</text>
</g>
<!-- d_out&#45;&gt;4 -->
<g id="edge4" class="edge">
<title>d_out&#45;&gt;4</title>
<path fill="none" stroke="#000000" d="M106.1206,-195.7501C106.1206,-164.2686 106.1206,-99.5502 106.1206,-62.2249"/>
<polygon fill="#000000" stroke="#000000" points="109.6207,-62.0306 106.1206,-52.0306 102.6207,-62.0306 109.6207,-62.0306"/>
</g>
<!-- d_preloop -->
<g id="node9" class="node">
<title>d_preloop</title>
<polygon fill="#d3d3d3" stroke="#000000" points="295.1206,-412 259.1206,-412 259.1206,-376 295.1206,-376 295.1206,-412"/>
<text text-anchor="middle" x="277.1206" y="-390.3" font-family="Times,serif" font-size="14.00" fill="#000000">d</text>
</g>
<!-- d_preloop&#45;&gt;1 -->
<g id="edge6" class="edge">
<title>d_preloop&#45;&gt;1</title>
<path fill="none" stroke="#000000" d="M258.7181,-388.1775C194.8491,-366.9885 -10.0372,-290.2648 52.1206,-196 72.9665,-164.3863 318.8611,-73.9133 402.4849,-43.8477"/>
<polygon fill="#000000" stroke="#000000" points="403.8417,-47.0795 412.0736,-40.4096 401.479,-40.4903 403.8417,-47.0795"/>
</g>
<!-- d_preloop&#45;&gt;d_out -->
<g id="edge5" class="edge">
<title>d_preloop&#45;&gt;d_out</title>
<path fill="none" stroke="#000000" d="M259.7832,-375.7501C229.1057,-343.4579 165.2059,-276.195 130.2477,-239.397"/>
<polygon fill="#000000" stroke="#000000" points="132.6747,-236.87 123.2497,-232.0306 127.5997,-241.6913 132.6747,-236.87"/>
</g>
<!-- c_preloop -->
<g id="node10" class="node">
<title>c_preloop</title>
<polygon fill="#d3d3d3" stroke="#000000" points="403.1206,-412 367.1206,-412 367.1206,-376 403.1206,-376 403.1206,-412"/>
<text text-anchor="middle" x="385.1206" y="-390.3" font-family="Times,serif" font-size="14.00" fill="#000000">c</text>
</g>
<!-- c_preloop&#45;&gt;1 -->
<g id="edge8" class="edge">
<title>c_preloop&#45;&gt;1</title>
<path fill="none" stroke="#000000" d="M403.4083,-377.5529C427.3571,-354.6485 468.1677,-310.5688 484.1206,-263 508.0786,-191.5613 469.4724,-104.1749 446.0258,-60.9156"/>
<polygon fill="#000000" stroke="#000000" points="449.059,-59.1683 441.1402,-52.1296 442.9412,-62.5702 449.059,-59.1683"/>
</g>
<!-- c_preloop&#45;&gt;d_out -->
<g id="edge7" class="edge">
<title>c_preloop&#45;&gt;d_out</title>
<path fill="none" stroke="#000000" d="M366.8251,-385.0166C327.4359,-365.3247 232.3281,-315.8767 160.1206,-263 150.3251,-255.8269 140.2901,-247.1511 131.5699,-239.1054"/>
<polygon fill="#000000" stroke="#000000" points="133.9658,-236.554 124.2842,-232.2508 129.1691,-241.6523 133.9658,-236.554"/>
</g>
<!-- b_preloop -->
<g id="node11" class="node">
<title>b_preloop</title>
<polygon fill="#d3d3d3" stroke="#000000" points="619.1206,-412 583.1206,-412 583.1206,-376 619.1206,-376 619.1206,-412"/>
<text text-anchor="middle" x="601.1206" y="-390.3" font-family="Times,serif" font-size="14.00" fill="#000000">b</text>
</g>
<!-- b_preloop&#45;&gt;1 -->
<g id="edge10" class="edge">
<title>b_preloop&#45;&gt;1</title>
<path fill="none" stroke="#000000" d="M605.4265,-375.8338C613.0311,-339.7787 625.6698,-257.3659 599.1206,-196 569.7007,-127.9988 496.4815,-74.6961 456.7614,-49.6414"/>
<polygon fill="#000000" stroke="#000000" points="458.473,-46.5847 448.1258,-44.3071 454.7942,-52.5401 458.473,-46.5847"/>
</g>
<!-- b_preloop&#45;&gt;c_out -->
<g id="edge9" class="edge">
<title>b_preloop&#45;&gt;c_out</title>
<path fill="none" stroke="#000000" d="M582.8251,-385.0166C543.4359,-365.3247 448.3281,-315.8767 376.1206,-263 366.3251,-255.8269 356.2901,-247.1511 347.5699,-239.1054"/>
<polygon fill="#000000" stroke="#000000" points="349.9658,-236.554 340.2842,-232.2508 345.1691,-241.6523 349.9658,-236.554"/>
</g>
<!-- a_preloop -->
<g id="node12" class="node">
<title>a_preloop</title>
<polygon fill="#d3d3d3" stroke="#000000" points="511.1206,-412 475.1206,-412 475.1206,-376 511.1206,-376 511.1206,-412"/>
<text text-anchor="middle" x="493.1206" y="-390.3" font-family="Times,serif" font-size="14.00" fill="#000000">a</text>
</g>
<!-- a_preloop&#45;&gt;1 -->
<g id="edge12" class="edge">
<title>a_preloop&#45;&gt;1</title>
<path fill="none" stroke="#000000" d="M504.2613,-375.7818C524.2899,-340.6499 562.478,-261.2429 542.1206,-196 525.1053,-141.468 482.597,-89.1157 455.1171,-59.3237"/>
<polygon fill="#000000" stroke="#000000" points="457.5357,-56.7863 448.1391,-51.892 452.4326,-61.5779 457.5357,-56.7863"/>
</g>
<!-- a_preloop&#45;&gt;b_out -->
<g id="edge11" class="edge">
<title>a_preloop&#45;&gt;b_out</title>
<path fill="none" stroke="#000000" d="M474.8251,-385.0166C435.4359,-365.3247 340.3281,-315.8767 268.1206,-263 258.3251,-255.8269 248.2901,-247.1511 239.5699,-239.1054"/>
<polygon fill="#000000" stroke="#000000" points="241.9658,-236.554 232.2842,-232.2508 237.1691,-241.6523 241.9658,-236.554"/>
</g>
<!-- d_loop -->
<g id="node13" class="node">
<title>d_loop</title>
<polygon fill="#d3d3d3" stroke="#000000" points="295.1206,-592 259.1206,-592 259.1206,-556 295.1206,-556 295.1206,-592"/>
<text text-anchor="middle" x="277.1206" y="-570.3" font-family="Times,serif" font-size="14.00" fill="#000000">d</text>
</g>
<!-- d_loop&#45;&gt;1 -->
<g id="edge14" class="edge">
<title>d_loop&#45;&gt;1</title>
<path fill="none" stroke="#000000" d="M259.1091,-563.1591C186.4762,-518.0834 -76.3658,-341.0707 22.1206,-196 33.5974,-179.0947 312.2408,-76.8001 402.3154,-44.066"/>
<polygon fill="#000000" stroke="#000000" points="403.6578,-47.3023 411.8634,-40.6002 401.2693,-40.7224 403.6578,-47.3023"/>
</g>
<!-- d_loop&#45;&gt;d_preloop -->
<g id="edge13" class="edge">
<title>d_loop&#45;&gt;d_preloop</title>
<path fill="none" stroke="#000000" d="M277.1206,-555.7501C277.1206,-524.2686 277.1206,-459.5502 277.1206,-422.2249"/>
<polygon fill="#000000" stroke="#000000" points="280.6207,-422.0306 277.1206,-412.0306 273.6207,-422.0306 280.6207,-422.0306"/>
</g>
<!-- c_loop -->
<g id="node14" class="node">
<title>c_loop</title>
<polygon fill="#d3d3d3" stroke="#000000" points="403.1206,-592 367.1206,-592 367.1206,-556 403.1206,-556 403.1206,-592"/>
<text text-anchor="middle" x="385.1206" y="-570.3" font-family="Times,serif" font-size="14.00" fill="#000000">c</text>
</g>
<!-- c_loop&#45;&gt;1 -->
<g id="edge16" class="edge">
<title>c_loop&#45;&gt;1</title>
<path fill="none" stroke="#000000" d="M403.5126,-565.0305C462.189,-536.377 641.3237,-448.5934 645.1206,-443 690.2289,-376.5485 657.5616,-343.2365 661.1206,-263 662.4402,-233.2515 674.8608,-222.4182 661.1206,-196 617.6823,-112.4812 509.2737,-63.0599 457.9272,-43.611"/>
<polygon fill="#000000" stroke="#000000" points="459.0483,-40.2941 448.4549,-40.1196 456.6273,-46.8621 459.0483,-40.2941"/>
</g>
<!-- c_loop&#45;&gt;d_preloop -->
<g id="edge15" class="edge">
<title>c_loop&#45;&gt;d_preloop</title>
<path fill="none" stroke="#000000" d="M374.1706,-555.7501C355.0386,-523.8633 315.4475,-457.8781 293.1988,-420.7969"/>
<polygon fill="#000000" stroke="#000000" points="296.0852,-418.8048 287.939,-412.0306 290.0827,-422.4063 296.0852,-418.8048"/>
</g>
<!-- b_loop -->
<g id="node15" class="node">
<title>b_loop</title>
<polygon fill="#d3d3d3" stroke="#000000" points="511.1206,-592 475.1206,-592 475.1206,-556 511.1206,-556 511.1206,-592"/>
<text text-anchor="middle" x="493.1206" y="-570.3" font-family="Times,serif" font-size="14.00" fill="#000000">b</text>
</g>
<!-- b_loop&#45;&gt;1 -->
<g id="edge18" class="edge">
<title>b_loop&#45;&gt;1</title>
<path fill="none" stroke="#000000" d="M511.3614,-564.388C561.8171,-537.625 700.3125,-462.9107 712.1206,-443 768.1402,-348.5402 774.6338,-290.7582 719.1206,-196 661.3846,-97.4477 519.3286,-54.3128 458.5049,-39.9203"/>
<polygon fill="#000000" stroke="#000000" points="458.991,-36.4415 448.4634,-37.633 457.4363,-43.2666 458.991,-36.4415"/>
</g>
<!-- b_loop&#45;&gt;c_preloop -->
<g id="edge17" class="edge">
<title>b_loop&#45;&gt;c_preloop</title>
<path fill="none" stroke="#000000" d="M482.1706,-555.7501C463.0386,-523.8633 423.4475,-457.8781 401.1988,-420.7969"/>
<polygon fill="#000000" stroke="#000000" points="404.0852,-418.8048 395.939,-412.0306 398.0827,-422.4063 404.0852,-418.8048"/>
</g>
<!-- a_loop -->
<g id="node16" class="node">
<title>a_loop</title>
<polygon fill="#d3d3d3" stroke="#000000" points="619.1206,-592 583.1206,-592 583.1206,-556 619.1206,-556 619.1206,-592"/>
<text text-anchor="middle" x="601.1206" y="-570.3" font-family="Times,serif" font-size="14.00" fill="#000000">a</text>
</g>
<!-- a_loop&#45;&gt;1 -->
<g id="edge20" class="edge">
<title>a_loop&#45;&gt;1</title>
<path fill="none" stroke="#000000" d="M619.1885,-567.522C657.8257,-552.5697 747.9029,-511.5825 784.1206,-443 835.3907,-345.914 847.6383,-288.2603 788.1206,-196 712.4721,-78.7347 529.1416,-45.4372 458.5156,-36.7902"/>
<polygon fill="#000000" stroke="#000000" points="458.5157,-33.2673 448.182,-35.605 457.718,-40.2217 458.5157,-33.2673"/>
</g>
<!-- a_loop&#45;&gt;b_preloop -->
<g id="edge19" class="edge">
<title>a_loop&#45;&gt;b_preloop</title>
<path fill="none" stroke="#000000" d="M601.1206,-555.7501C601.1206,-524.2686 601.1206,-459.5502 601.1206,-422.2249"/>
<polygon fill="#000000" stroke="#000000" points="604.6207,-422.0306 601.1206,-412.0306 597.6207,-422.0306 604.6207,-422.0306"/>
</g>
</g>
</svg>
