<?xml version="1.0" encoding="UTF-8" standalone="no"?>
<!DOCTYPE svg PUBLIC "-//W3C//DTD SVG 1.1//EN"
 "http://www.w3.org/Graphics/SVG/1.1/DTD/svg11.dtd">
<!-- Generated by graphviz version 2.40.1 (20161225.0304)
 -->
<!-- Title: %3 Pages: 1 -->
<svg width="354pt" height="764pt"
 viewBox="0.00 0.00 354.00 764.00" xmlns="http://www.w3.org/2000/svg" xmlns:xlink="http://www.w3.org/1999/xlink">
<g id="graph0" class="graph" transform="scale(1 1) rotate(0) translate(4 760)">
<title>%3</title>
<polygon fill="#ffffff" stroke="transparent" points="-4,4 -4,-760 350,-760 350,4 -4,4"/>
<!-- 0 -->
<g id="node1" class="node">
<title>0</title>
<ellipse fill="none" stroke="#000000" cx="98" cy="-738" rx="27" ry="18"/>
<text text-anchor="middle" x="98" y="-734.3" font-family="Times,serif" font-size="14.00" fill="#000000">0</text>
</g>
<!-- 13 -->
<g id="node2" class="node">
<title>13</title>
<ellipse fill="none" stroke="#000000" cx="98" cy="-666" rx="27" ry="18"/>
<text text-anchor="middle" x="98" y="-662.3" font-family="Times,serif" font-size="14.00" fill="#000000">13</text>
</g>
<!-- 0&#45;&gt;13 -->
<g id="edge1" class="edge">
<title>0&#45;&gt;13</title>
<path fill="none" stroke="#000000" d="M98,-719.8314C98,-712.131 98,-702.9743 98,-694.4166"/>
<polygon fill="#000000" stroke="#000000" points="101.5001,-694.4132 98,-684.4133 94.5001,-694.4133 101.5001,-694.4132"/>
</g>
<!-- 2 -->
<g id="node11" class="node">
<title>2</title>
<ellipse fill="none" stroke="#000000" cx="126" cy="-378" rx="27" ry="18"/>
<text text-anchor="middle" x="126" y="-374.3" font-family="Times,serif" font-size="14.00" fill="#000000">2</text>
</g>
<!-- 13&#45;&gt;2 -->
<g id="edge10" class="edge">
<title>13&#45;&gt;2</title>
<path fill="none" stroke="#000000" d="M93.569,-648.1787C84.4855,-608.3686 66.5002,-509.6146 90,-432 93.2661,-421.2127 99.4764,-410.6108 105.8313,-401.6963"/>
<polygon fill="#000000" stroke="#000000" points="108.6285,-403.8001 111.8771,-393.7156 103.0487,-399.5732 108.6285,-403.8001"/>
</g>
<!-- 16 -->
<g id="node17" class="node">
<title>16</title>
<ellipse fill="none" stroke="#000000" cx="126" cy="-594" rx="27" ry="18"/>
<text text-anchor="middle" x="126" y="-590.3" font-family="Times,serif" font-size="14.00" fill="#000000">16</text>
</g>
<!-- 13&#45;&gt;16 -->
<g id="edge21" class="edge">
<title>13&#45;&gt;16</title>
<path fill="none" stroke="#000000" d="M104.778,-648.5708C107.9872,-640.3187 111.8935,-630.2738 115.4758,-621.0623"/>
<polygon fill="#000000" stroke="#000000" points="118.8248,-622.1069 119.1874,-611.5182 112.3008,-619.5697 118.8248,-622.1069"/>
</g>
<!-- 12 -->
<g id="node3" class="node">
<title>12</title>
<ellipse fill="none" stroke="#000000" cx="247" cy="-90" rx="27" ry="18"/>
<text text-anchor="middle" x="247" y="-86.3" font-family="Times,serif" font-size="14.00" fill="#000000">12</text>
</g>
<!-- 1 -->
<g id="node4" class="node">
<title>1</title>
<ellipse fill="none" stroke="#000000" cx="173" cy="-18" rx="27" ry="18"/>
<text text-anchor="middle" x="173" y="-14.3" font-family="Times,serif" font-size="14.00" fill="#000000">1</text>
</g>
<!-- 12&#45;&gt;1 -->
<g id="edge2" class="edge">
<title>12&#45;&gt;1</title>
<path fill="none" stroke="#000000" d="M231.6672,-75.0816C221.249,-64.945 207.2922,-51.3654 195.6053,-39.9944"/>
<polygon fill="#000000" stroke="#000000" points="197.9212,-37.3644 188.3132,-32.8993 193.0397,-42.3815 197.9212,-37.3644"/>
</g>
<!-- 11 -->
<g id="node5" class="node">
<title>11</title>
<ellipse fill="none" stroke="#000000" cx="319" cy="-90" rx="27" ry="18"/>
<text text-anchor="middle" x="319" y="-86.3" font-family="Times,serif" font-size="14.00" fill="#000000">11</text>
</g>
<!-- 11&#45;&gt;1 -->
<g id="edge3" class="edge">
<title>11&#45;&gt;1</title>
<path fill="none" stroke="#000000" d="M297.3108,-79.1234C292.5962,-76.7681 287.6334,-74.2956 283,-72 256.4311,-58.8365 226.1873,-44.0003 204.1454,-33.2145"/>
<polygon fill="#000000" stroke="#000000" points="205.4581,-29.9604 194.9372,-28.7108 202.3826,-36.2486 205.4581,-29.9604"/>
</g>
<!-- 9 -->
<g id="node6" class="node">
<title>9</title>
<ellipse fill="none" stroke="#000000" cx="209" cy="-162" rx="27" ry="18"/>
<text text-anchor="middle" x="209" y="-158.3" font-family="Times,serif" font-size="14.00" fill="#000000">9</text>
</g>
<!-- 9&#45;&gt;1 -->
<g id="edge4" class="edge">
<title>9&#45;&gt;1</title>
<path fill="none" stroke="#000000" d="M204.5134,-144.0535C198.3693,-119.4774 187.2752,-75.1008 180.0244,-46.0974"/>
<polygon fill="#000000" stroke="#000000" points="183.3641,-45.0252 177.5432,-36.1727 176.5731,-46.723 183.3641,-45.0252"/>
</g>
<!-- 7 -->
<g id="node7" class="node">
<title>7</title>
<ellipse fill="none" stroke="#000000" cx="154" cy="-234" rx="27" ry="18"/>
<text text-anchor="middle" x="154" y="-230.3" font-family="Times,serif" font-size="14.00" fill="#000000">7</text>
</g>
<!-- 7&#45;&gt;1 -->
<g id="edge5" class="edge">
<title>7&#45;&gt;1</title>
<path fill="none" stroke="#000000" d="M155.5872,-215.9555C158.8983,-178.3144 166.5623,-91.1867 170.5261,-46.1246"/>
<polygon fill="#000000" stroke="#000000" points="174.0141,-46.4133 171.4039,-36.1451 167.041,-45.7999 174.0141,-46.4133"/>
</g>
<!-- 5 -->
<g id="node8" class="node">
<title>5</title>
<ellipse fill="none" stroke="#000000" cx="27" cy="-90" rx="27" ry="18"/>
<text text-anchor="middle" x="27" y="-86.3" font-family="Times,serif" font-size="14.00" fill="#000000">5</text>
</g>
<!-- 5&#45;&gt;1 -->
<g id="edge6" class="edge">
<title>5&#45;&gt;1</title>
<path fill="none" stroke="#000000" d="M48.6892,-79.1234C53.4038,-76.7681 58.3666,-74.2956 63,-72 89.5689,-58.8365 119.8127,-44.0003 141.8546,-33.2145"/>
<polygon fill="#000000" stroke="#000000" points="143.6174,-36.2486 151.0628,-28.7108 140.5419,-29.9604 143.6174,-36.2486"/>
</g>
<!-- 4 -->
<g id="node9" class="node">
<title>4</title>
<ellipse fill="none" stroke="#000000" cx="99" cy="-90" rx="27" ry="18"/>
<text text-anchor="middle" x="99" y="-86.3" font-family="Times,serif" font-size="14.00" fill="#000000">4</text>
</g>
<!-- 4&#45;&gt;1 -->
<g id="edge7" class="edge">
<title>4&#45;&gt;1</title>
<path fill="none" stroke="#000000" d="M114.3328,-75.0816C124.751,-64.945 138.7078,-51.3654 150.3947,-39.9944"/>
<polygon fill="#000000" stroke="#000000" points="152.9603,-42.3815 157.6868,-32.8993 148.0788,-37.3644 152.9603,-42.3815"/>
</g>
<!-- 15 -->
<g id="node10" class="node">
<title>15</title>
<ellipse fill="none" stroke="#000000" cx="126" cy="-450" rx="27" ry="18"/>
<text text-anchor="middle" x="126" y="-446.3" font-family="Times,serif" font-size="14.00" fill="#000000">15</text>
</g>
<!-- 15&#45;&gt;2 -->
<g id="edge8" class="edge">
<title>15&#45;&gt;2</title>
<path fill="none" stroke="#000000" d="M126,-431.8314C126,-424.131 126,-414.9743 126,-406.4166"/>
<polygon fill="#000000" stroke="#000000" points="129.5001,-406.4132 126,-396.4133 122.5001,-406.4133 129.5001,-406.4132"/>
</g>
<!-- 3 -->
<g id="node13" class="node">
<title>3</title>
<ellipse fill="none" stroke="#000000" cx="99" cy="-162" rx="27" ry="18"/>
<text text-anchor="middle" x="99" y="-158.3" font-family="Times,serif" font-size="14.00" fill="#000000">3</text>
</g>
<!-- 2&#45;&gt;3 -->
<g id="edge11" class="edge">
<title>2&#45;&gt;3</title>
<path fill="none" stroke="#000000" d="M123.1967,-360.0192C121.5956,-349.5256 119.5956,-336.0256 118,-324 111.7757,-277.0895 105.5814,-222.3928 102.0302,-190.0642"/>
<polygon fill="#000000" stroke="#000000" points="105.4963,-189.5624 100.9309,-180.0016 98.5376,-190.3226 105.4963,-189.5624"/>
</g>
<!-- 6 -->
<g id="node14" class="node">
<title>6</title>
<ellipse fill="none" stroke="#000000" cx="154" cy="-306" rx="27" ry="18"/>
<text text-anchor="middle" x="154" y="-302.3" font-family="Times,serif" font-size="14.00" fill="#000000">6</text>
</g>
<!-- 2&#45;&gt;6 -->
<g id="edge12" class="edge">
<title>2&#45;&gt;6</title>
<path fill="none" stroke="#000000" d="M132.778,-360.5708C135.9872,-352.3187 139.8935,-342.2738 143.4758,-333.0623"/>
<polygon fill="#000000" stroke="#000000" points="146.8248,-334.1069 147.1874,-323.5182 140.3008,-331.5697 146.8248,-334.1069"/>
</g>
<!-- 14 -->
<g id="node12" class="node">
<title>14</title>
<ellipse fill="none" stroke="#000000" cx="126" cy="-522" rx="27" ry="18"/>
<text text-anchor="middle" x="126" y="-518.3" font-family="Times,serif" font-size="14.00" fill="#000000">14</text>
</g>
<!-- 14&#45;&gt;15 -->
<g id="edge23" class="edge">
<title>14&#45;&gt;15</title>
<path fill="none" stroke="#000000" d="M126,-503.8314C126,-496.131 126,-486.9743 126,-478.4166"/>
<polygon fill="#000000" stroke="#000000" points="129.5001,-478.4132 126,-468.4133 122.5001,-478.4133 129.5001,-478.4132"/>
</g>
<!-- 14&#45;&gt;2 -->
<g id="edge9" class="edge">
<title>14&#45;&gt;2</title>
<path fill="none" stroke="#000000" d="M140.1229,-506.2844C148.2535,-496.1468 157.6901,-482.2347 162,-468 166.6365,-452.6865 166.6365,-447.3135 162,-432 158.7339,-421.2127 152.5236,-410.6108 146.1687,-401.6963"/>
<polygon fill="#000000" stroke="#000000" points="148.9513,-399.5732 140.1229,-393.7156 143.3715,-403.8001 148.9513,-399.5732"/>
</g>
<!-- 3&#45;&gt;5 -->
<g id="edge14" class="edge">
<title>3&#45;&gt;5</title>
<path fill="none" stroke="#000000" d="M83.7307,-146.7307C73.803,-136.803 60.6847,-123.6847 49.5637,-112.5637"/>
<polygon fill="#000000" stroke="#000000" points="51.7933,-109.8436 42.2473,-105.2473 46.8436,-114.7933 51.7933,-109.8436"/>
</g>
<!-- 3&#45;&gt;4 -->
<g id="edge13" class="edge">
<title>3&#45;&gt;4</title>
<path fill="none" stroke="#000000" d="M99,-143.8314C99,-136.131 99,-126.9743 99,-118.4166"/>
<polygon fill="#000000" stroke="#000000" points="102.5001,-118.4132 99,-108.4133 95.5001,-118.4133 102.5001,-118.4132"/>
</g>
<!-- 6&#45;&gt;7 -->
<g id="edge15" class="edge">
<title>6&#45;&gt;7</title>
<path fill="none" stroke="#000000" d="M154,-287.8314C154,-280.131 154,-270.9743 154,-262.4166"/>
<polygon fill="#000000" stroke="#000000" points="157.5001,-262.4132 154,-252.4133 150.5001,-262.4133 157.5001,-262.4132"/>
</g>
<!-- 8 -->
<g id="node15" class="node">
<title>8</title>
<ellipse fill="none" stroke="#000000" cx="226" cy="-234" rx="27" ry="18"/>
<text text-anchor="middle" x="226" y="-230.3" font-family="Times,serif" font-size="14.00" fill="#000000">8</text>
</g>
<!-- 6&#45;&gt;8 -->
<g id="edge16" class="edge">
<title>6&#45;&gt;8</title>
<path fill="none" stroke="#000000" d="M169.2693,-290.7307C179.197,-280.803 192.3153,-267.6847 203.4363,-256.5637"/>
<polygon fill="#000000" stroke="#000000" points="206.1564,-258.7933 210.7527,-249.2473 201.2067,-253.8436 206.1564,-258.7933"/>
</g>
<!-- 8&#45;&gt;9 -->
<g id="edge17" class="edge">
<title>8&#45;&gt;9</title>
<path fill="none" stroke="#000000" d="M221.7978,-216.2022C219.9179,-208.2406 217.6575,-198.6671 215.5629,-189.7957"/>
<polygon fill="#000000" stroke="#000000" points="218.9172,-188.7706 213.2128,-179.8425 212.1045,-190.3792 218.9172,-188.7706"/>
</g>
<!-- 10 -->
<g id="node16" class="node">
<title>10</title>
<ellipse fill="none" stroke="#000000" cx="281" cy="-162" rx="27" ry="18"/>
<text text-anchor="middle" x="281" y="-158.3" font-family="Times,serif" font-size="14.00" fill="#000000">10</text>
</g>
<!-- 8&#45;&gt;10 -->
<g id="edge18" class="edge">
<title>8&#45;&gt;10</title>
<path fill="none" stroke="#000000" d="M238.4804,-217.6621C245.5124,-208.4564 254.4347,-196.7764 262.2883,-186.4953"/>
<polygon fill="#000000" stroke="#000000" points="265.28,-188.3446 268.569,-178.2733 259.7172,-184.0953 265.28,-188.3446"/>
</g>
<!-- 10&#45;&gt;12 -->
<g id="edge20" class="edge">
<title>10&#45;&gt;12</title>
<path fill="none" stroke="#000000" d="M272.7695,-144.5708C268.8021,-136.1691 263.9571,-125.9091 259.5433,-116.5623"/>
<polygon fill="#000000" stroke="#000000" points="262.5896,-114.8166 255.1547,-107.2687 256.2599,-117.8057 262.5896,-114.8166"/>
</g>
<!-- 10&#45;&gt;11 -->
<g id="edge19" class="edge">
<title>10&#45;&gt;11</title>
<path fill="none" stroke="#000000" d="M290.0055,-144.937C294.4828,-136.4537 299.9952,-126.0092 305.007,-116.513"/>
<polygon fill="#000000" stroke="#000000" points="308.2229,-117.9182 309.7952,-107.4407 302.0322,-114.6509 308.2229,-117.9182"/>
</g>
<!-- 16&#45;&gt;14 -->
<g id="edge22" class="edge">
<title>16&#45;&gt;14</title>
<path fill="none" stroke="#000000" d="M126,-575.8314C126,-568.131 126,-558.9743 126,-550.4166"/>
<polygon fill="#000000" stroke="#000000" points="129.5001,-550.4132 126,-540.4133 122.5001,-550.4133 129.5001,-550.4132"/>
</g>
</g>
</svg>
