<?xml version="1.0" encoding="UTF-8" standalone="no"?>
<!DOCTYPE svg PUBLIC "-//W3C//DTD SVG 1.1//EN"
 "http://www.w3.org/Graphics/SVG/1.1/DTD/svg11.dtd">
<!-- Generated by graphviz version 2.40.1 (20161225.0304)
 -->
<!-- Title: G Pages: 1 -->
<svg width="150pt" height="258pt"
 viewBox="0.00 0.00 150.00 258.00" xmlns="http://www.w3.org/2000/svg" xmlns:xlink="http://www.w3.org/1999/xlink">
<g id="graph0" class="graph" transform="scale(1 1) rotate(0) translate(4 254)">
<title>G</title>
<polygon fill="#ffffff" stroke="transparent" points="-4,4 -4,-254 146,-254 146,4 -4,4"/>
<g id="clust1" class="cluster">
<title>cluster_0</title>
<polygon fill="none" stroke="#000000" points="8,-8 8,-177 134,-177 134,-8 8,-8"/>
</g>
<!-- z -->
<g id="node1" class="node">
<title>z</title>
<polygon fill="none" stroke="#000000" points="69.5,-250 24.5,-250 24.5,-205 69.5,-205 69.5,-250"/>
<text text-anchor="middle" x="47" y="-231.3" font-family="Times,serif" font-size="14.00" fill="#000000">z = 0</text>
<text text-anchor="middle" x="47" y="-216.3" font-family="Times,serif" font-size="14.00" fill="#000000">i = 0</text>
</g>
<!-- cond1 -->
<g id="node2" class="node">
<title>cond1</title>
<polygon fill="none" stroke="#000000" points="78,-169 16,-169 16,-107 78,-107 78,-169"/>
<text text-anchor="middle" x="47" y="-134.3" font-family="Times,serif" font-size="14.00" fill="#000000">if i &lt; 10</text>
</g>
<!-- z&#45;&gt;cond1 -->
<g id="edge1" class="edge">
<title>z&#45;&gt;cond1</title>
<path fill="none" stroke="#000000" d="M47,-204.9154C47,-197.0992 47,-188.076 47,-179.2367"/>
<polygon fill="#000000" stroke="#000000" points="50.5001,-179.028 47,-169.0281 43.5001,-179.0281 50.5001,-179.028"/>
</g>
<!-- loopbody1 -->
<g id="node3" class="node">
<title>loopbody1</title>
<polygon fill="none" stroke="#000000" points="71.5,-71 16.5,-71 16.5,-16 71.5,-16 71.5,-71"/>
<text text-anchor="middle" x="44" y="-47.3" font-family="Times,serif" font-size="14.00" fill="#000000">print(i)</text>
<text text-anchor="middle" x="44" y="-32.3" font-family="Times,serif" font-size="14.00" fill="#000000">i++</text>
</g>
<!-- cond1&#45;&gt;loopbody1 -->
<g id="edge2" class="edge">
<title>cond1&#45;&gt;loopbody1</title>
<path fill="none" stroke="#000000" d="M39.6179,-106.7953C38.979,-98.616 38.6179,-89.7088 38.5711,-81.2285"/>
<polygon fill="#000000" stroke="#000000" points="42.0713,-81.2086 38.6723,-71.1738 35.0717,-81.138 42.0713,-81.2086"/>
</g>
<!-- end -->
<g id="node4" class="node">
<title>end</title>
<polygon fill="none" stroke="#000000" points="126,-61.5 90,-61.5 90,-25.5 126,-25.5 126,-61.5"/>
<text text-anchor="middle" x="108" y="-39.8" font-family="Times,serif" font-size="14.00" fill="#000000">end</text>
</g>
<!-- cond1&#45;&gt;end -->
<g id="edge3" class="edge">
<title>cond1&#45;&gt;end</title>
<path fill="none" stroke="#000000" d="M67.1427,-106.7953C74.7552,-95.0022 83.3444,-81.696 90.6761,-70.3379"/>
<polygon fill="#000000" stroke="#000000" points="93.7609,-72.0125 96.2437,-61.7127 87.8797,-68.2162 93.7609,-72.0125"/>
</g>
<!-- loopbody1&#45;&gt;cond1 -->
<g id="edge4" class="edge">
<title>loopbody1&#45;&gt;cond1</title>
<path fill="none" stroke="#000000" d="M51.0848,-71.1738C51.8039,-79.116 52.2507,-87.9547 52.3885,-96.535"/>
<polygon fill="#000000" stroke="#000000" points="48.8887,-96.7995 52.4008,-106.7953 55.8887,-96.791 48.8887,-96.7995"/>
</g>
</g>
</svg>
