<?xml version="1.0" encoding="UTF-8" standalone="no"?>
<!DOCTYPE svg PUBLIC "-//W3C//DTD SVG 1.1//EN"
 "http://www.w3.org/Graphics/SVG/1.1/DTD/svg11.dtd">
<!-- Generated by graphviz version 2.40.1 (20161225.0304)
 -->
<!-- Title: G Pages: 1 -->
<svg width="238pt" height="326pt"
 viewBox="0.00 0.00 238.00 326.00" xmlns="http://www.w3.org/2000/svg" xmlns:xlink="http://www.w3.org/1999/xlink">
<g id="graph0" class="graph" transform="scale(1 1) rotate(0) translate(4 322)">
<title>G</title>
<polygon fill="#ffffff" stroke="transparent" points="-4,4 -4,-322 234,-322 234,4 -4,4"/>
<g id="clust1" class="cluster">
<title>cluster_0</title>
<polygon fill="none" stroke="#000000" points="8,-8 8,-230 222,-230 222,-8 8,-8"/>
</g>
<!-- z -->
<g id="node1" class="node">
<title>z</title>
<polygon fill="none" stroke="#000000" points="128.5,-318 83.5,-318 83.5,-273 128.5,-273 128.5,-318"/>
<text text-anchor="middle" x="106" y="-299.3" font-family="Times,serif" font-size="14.00" fill="#000000">z = 0</text>
<text text-anchor="middle" x="106" y="-284.3" font-family="Times,serif" font-size="14.00" fill="#000000">i = 0</text>
</g>
<!-- cond1 -->
<g id="node2" class="node">
<title>cond1</title>
<polygon fill="none" stroke="#000000" points="137,-222 75,-222 75,-160 137,-160 137,-222"/>
<text text-anchor="middle" x="106" y="-187.3" font-family="Times,serif" font-size="14.00" fill="#000000">if i &lt; 10</text>
</g>
<!-- z&#45;&gt;cond1 -->
<g id="edge1" class="edge">
<title>z&#45;&gt;cond1</title>
<path fill="none" stroke="#000000" d="M106,-272.8251C106,-261.0577 106,-246.3063 106,-232.5808"/>
<polygon fill="#000000" stroke="#000000" points="109.5001,-232.3512 106,-222.3512 102.5001,-232.3513 109.5001,-232.3512"/>
<text text-anchor="middle" x="120.5" y="-243.8" font-family="Times,serif" font-size="14.00" fill="#000000">z = 0</text>
</g>
<!-- loopbody1 -->
<g id="node3" class="node">
<title>loopbody1</title>
<polygon fill="none" stroke="#000000" points="102.5,-71 47.5,-71 47.5,-16 102.5,-16 102.5,-71"/>
<text text-anchor="middle" x="75" y="-47.3" font-family="Times,serif" font-size="14.00" fill="#000000">print(i)</text>
<text text-anchor="middle" x="75" y="-32.3" font-family="Times,serif" font-size="14.00" fill="#000000">i++</text>
</g>
<!-- cond1&#45;&gt;loopbody1 -->
<g id="edge2" class="edge">
<title>cond1&#45;&gt;loopbody1</title>
<path fill="none" stroke="#000000" d="M74.8412,-163.5637C64.199,-152.2034 53.5804,-138.1417 48,-123 42.9298,-109.2428 46.0123,-94.0231 51.6235,-80.614"/>
<polygon fill="#000000" stroke="#000000" points="54.957,-81.7525 56.0758,-71.2169 48.6311,-78.7552 54.957,-81.7525"/>
<text text-anchor="middle" x="66" y="-111.8" font-family="Times,serif" font-size="14.00" fill="#000000">z = ⊤</text>
</g>
<!-- end -->
<g id="node4" class="node">
<title>end</title>
<polygon fill="none" stroke="#000000" points="196,-61.5 160,-61.5 160,-25.5 196,-25.5 196,-61.5"/>
<text text-anchor="middle" x="178" y="-39.8" font-family="Times,serif" font-size="14.00" fill="#000000">end</text>
</g>
<!-- cond1&#45;&gt;end -->
<g id="edge3" class="edge">
<title>cond1&#45;&gt;end</title>
<path fill="none" stroke="#000000" d="M121.2693,-159.719C134.1536,-133.3242 152.412,-95.9198 164.7039,-70.7384"/>
<polygon fill="#000000" stroke="#000000" points="167.8578,-72.2562 169.0992,-61.7343 161.5672,-69.1855 167.8578,-72.2562"/>
<text text-anchor="middle" x="164" y="-111.8" font-family="Times,serif" font-size="14.00" fill="#000000">z = ⊤</text>
</g>
<!-- loopbody1&#45;&gt;cond1 -->
<g id="edge4" class="edge">
<title>loopbody1&#45;&gt;cond1</title>
<path fill="none" stroke="#000000" d="M80.8331,-71.2544C85.4833,-93.3802 92.0656,-124.6992 97.3322,-149.7582"/>
<polygon fill="#000000" stroke="#000000" points="93.9437,-150.6527 99.4257,-159.719 100.794,-149.2129 93.9437,-150.6527"/>
<text text-anchor="middle" x="109" y="-111.8" font-family="Times,serif" font-size="14.00" fill="#000000">z = ⊤</text>
</g>
</g>
</svg>
