<?xml version="1.0" encoding="UTF-8" standalone="no"?>
<!DOCTYPE svg PUBLIC "-//W3C//DTD SVG 1.1//EN"
 "http://www.w3.org/Graphics/SVG/1.1/DTD/svg11.dtd">
<!-- Generated by graphviz version 2.40.1 (20161225.0304)
 -->
<!-- Title: G Pages: 1 -->
<svg width="217pt" height="326pt"
 viewBox="0.00 0.00 217.00 326.00" xmlns="http://www.w3.org/2000/svg" xmlns:xlink="http://www.w3.org/1999/xlink">
<g id="graph0" class="graph" transform="scale(1 1) rotate(0) translate(4 322)">
<title>G</title>
<polygon fill="#ffffff" stroke="transparent" points="-4,4 -4,-322 213,-322 213,4 -4,4"/>
<g id="clust1" class="cluster">
<title>cluster_0</title>
<polygon fill="none" stroke="#000000" points="8,-8 8,-230 201,-230 201,-8 8,-8"/>
</g>
<!-- z -->
<g id="node1" class="node">
<title>z</title>
<polygon fill="none" stroke="#000000" points="121.5,-318 76.5,-318 76.5,-273 121.5,-273 121.5,-318"/>
<text text-anchor="middle" x="99" y="-299.3" font-family="Times,serif" font-size="14.00" fill="#000000">z = 0</text>
<text text-anchor="middle" x="99" y="-284.3" font-family="Times,serif" font-size="14.00" fill="#000000">i = 0</text>
</g>
<!-- cond1 -->
<g id="node2" class="node">
<title>cond1</title>
<polygon fill="none" stroke="#000000" points="130,-222 68,-222 68,-160 130,-160 130,-222"/>
<text text-anchor="middle" x="99" y="-187.3" font-family="Times,serif" font-size="14.00" fill="#000000">if i &lt; 10</text>
</g>
<!-- z&#45;&gt;cond1 -->
<g id="edge1" class="edge">
<title>z&#45;&gt;cond1</title>
<path fill="none" stroke="#000000" d="M99,-272.8251C99,-261.0577 99,-246.3063 99,-232.5808"/>
<polygon fill="#000000" stroke="#000000" points="102.5001,-232.3512 99,-222.3512 95.5001,-232.3513 102.5001,-232.3512"/>
<text text-anchor="middle" x="113.5" y="-243.8" font-family="Times,serif" font-size="14.00" fill="#000000">z = 0</text>
</g>
<!-- loopbody1 -->
<g id="node3" class="node">
<title>loopbody1</title>
<polygon fill="none" stroke="#000000" points="99.5,-71 44.5,-71 44.5,-16 99.5,-16 99.5,-71"/>
<text text-anchor="middle" x="72" y="-47.3" font-family="Times,serif" font-size="14.00" fill="#000000">print(i)</text>
<text text-anchor="middle" x="72" y="-32.3" font-family="Times,serif" font-size="14.00" fill="#000000">i++</text>
</g>
<!-- cond1&#45;&gt;loopbody1 -->
<g id="edge2" class="edge">
<title>cond1&#45;&gt;loopbody1</title>
<path fill="none" stroke="#000000" d="M69.1175,-159.9239C60.5994,-149.0928 52.4332,-136.2997 48,-123 43.4141,-109.2424 46.1371,-94.0226 51.1334,-80.6135"/>
<polygon fill="#000000" stroke="#000000" points="54.4357,-81.7904 55.1013,-71.2165 47.987,-79.0674 54.4357,-81.7904"/>
<text text-anchor="middle" x="62.5" y="-111.8" font-family="Times,serif" font-size="14.00" fill="#000000">z = 0</text>
</g>
<!-- end -->
<g id="node4" class="node">
<title>end</title>
<polygon fill="none" stroke="#000000" points="182,-61.5 146,-61.5 146,-25.5 182,-25.5 182,-61.5"/>
<text text-anchor="middle" x="164" y="-39.8" font-family="Times,serif" font-size="14.00" fill="#000000">end</text>
</g>
<!-- cond1&#45;&gt;end -->
<g id="edge3" class="edge">
<title>cond1&#45;&gt;end</title>
<path fill="none" stroke="#000000" d="M112.7848,-159.719C124.3652,-133.4405 140.7546,-96.2492 151.8497,-71.0719"/>
<polygon fill="#000000" stroke="#000000" points="155.1347,-72.2966 155.9645,-61.7343 148.7291,-69.4738 155.1347,-72.2966"/>
<text text-anchor="middle" x="149.5" y="-111.8" font-family="Times,serif" font-size="14.00" fill="#000000">z = 0</text>
</g>
<!-- loopbody1&#45;&gt;cond1 -->
<g id="edge4" class="edge">
<title>loopbody1&#45;&gt;cond1</title>
<path fill="none" stroke="#000000" d="M77.0805,-71.2544C81.1306,-93.3802 86.8636,-124.6992 91.4507,-149.7582"/>
<polygon fill="#000000" stroke="#000000" points="88.0305,-150.5127 93.274,-159.719 94.9161,-149.2522 88.0305,-150.5127"/>
<text text-anchor="middle" x="100.5" y="-111.8" font-family="Times,serif" font-size="14.00" fill="#000000">z = 0</text>
</g>
</g>
</svg>
