<?xml version="1.0" encoding="UTF-8" standalone="no"?>
<!DOCTYPE svg PUBLIC "-//W3C//DTD SVG 1.1//EN"
 "http://www.w3.org/Graphics/SVG/1.1/DTD/svg11.dtd">
<!-- Generated by graphviz version 2.40.1 (20161225.0304)
 -->
<!-- Title: G Pages: 1 -->
<svg width="277pt" height="420pt"
 viewBox="0.00 0.00 277.00 420.00" xmlns="http://www.w3.org/2000/svg" xmlns:xlink="http://www.w3.org/1999/xlink">
<g id="graph0" class="graph" transform="scale(1 1) rotate(0) translate(4 416)">
<title>G</title>
<polygon fill="#ffffff" stroke="transparent" points="-4,4 -4,-416 273,-416 273,4 -4,4"/>
<g id="clust2" class="cluster">
<title>cluster_0</title>
<polygon fill="none" stroke="#000000" points="8,-280 8,-404 150,-404 150,-280 8,-280"/>
</g>
<!-- a -->
<g id="node1" class="node">
<title>a</title>
<ellipse fill="none" stroke="#000000" cx="115" cy="-378" rx="27" ry="18"/>
<text text-anchor="middle" x="115" y="-374.3" font-family="Times,serif" font-size="14.00" fill="#000000">a</text>
</g>
<!-- b -->
<g id="node2" class="node">
<title>b</title>
<ellipse fill="none" stroke="#000000" cx="43" cy="-306" rx="27" ry="18"/>
<text text-anchor="middle" x="43" y="-302.3" font-family="Times,serif" font-size="14.00" fill="#000000">b</text>
</g>
<!-- a&#45;&gt;b -->
<g id="edge1" class="edge">
<title>a&#45;&gt;b</title>
<path fill="none" stroke="#000000" d="M99.7307,-362.7307C89.803,-352.803 76.6847,-339.6847 65.5637,-328.5637"/>
<polygon fill="#000000" stroke="#000000" points="67.7933,-325.8436 58.2473,-321.2473 62.8436,-330.7933 67.7933,-325.8436"/>
</g>
<!-- c -->
<g id="node3" class="node">
<title>c</title>
<ellipse fill="none" stroke="#000000" cx="115" cy="-306" rx="27" ry="18"/>
<text text-anchor="middle" x="115" y="-302.3" font-family="Times,serif" font-size="14.00" fill="#000000">c</text>
</g>
<!-- a&#45;&gt;c -->
<g id="edge2" class="edge">
<title>a&#45;&gt;c</title>
<path fill="none" stroke="#000000" d="M109.0843,-360.2022C108.2798,-352.1807 108.0571,-342.5231 108.4162,-333.5957"/>
<polygon fill="#000000" stroke="#000000" points="111.9097,-333.8099 109.105,-323.593 104.9262,-333.3289 111.9097,-333.8099"/>
</g>
<!-- g -->
<g id="node4" class="node">
<title>g</title>
<ellipse fill="none" stroke="#000000" cx="187" cy="-306" rx="27" ry="18"/>
<text text-anchor="middle" x="187" y="-302.3" font-family="Times,serif" font-size="14.00" fill="#000000">g</text>
</g>
<!-- a&#45;&gt;g -->
<g id="edge4" class="edge">
<title>a&#45;&gt;g</title>
<path fill="none" stroke="#000000" d="M130.2693,-362.7307C140.197,-352.803 153.3153,-339.6847 164.4363,-328.5637"/>
<polygon fill="#000000" stroke="#000000" points="167.1564,-330.7933 171.7527,-321.2473 162.2067,-325.8436 167.1564,-330.7933"/>
</g>
<!-- c&#45;&gt;a -->
<g id="edge3" class="edge">
<title>c&#45;&gt;a</title>
<path fill="none" stroke="#000000" d="M120.895,-323.593C121.7094,-331.5865 121.942,-341.2363 121.5928,-350.1759"/>
<polygon fill="#000000" stroke="#000000" points="118.0976,-349.9891 120.9157,-360.2022 125.0817,-350.4608 118.0976,-349.9891"/>
</g>
<!-- y -->
<g id="node5" class="node">
<title>y</title>
<ellipse fill="none" stroke="#000000" cx="187" cy="-234" rx="27" ry="18"/>
<text text-anchor="middle" x="187" y="-230.3" font-family="Times,serif" font-size="14.00" fill="#000000">y</text>
</g>
<!-- g&#45;&gt;y -->
<g id="edge5" class="edge">
<title>g&#45;&gt;y</title>
<path fill="none" stroke="#000000" d="M187,-287.8314C187,-280.131 187,-270.9743 187,-262.4166"/>
<polygon fill="#000000" stroke="#000000" points="190.5001,-262.4132 187,-252.4133 183.5001,-262.4133 190.5001,-262.4132"/>
</g>
<!-- r -->
<g id="node6" class="node">
<title>r</title>
<ellipse fill="none" stroke="#000000" cx="187" cy="-162" rx="27" ry="18"/>
<text text-anchor="middle" x="187" y="-158.3" font-family="Times,serif" font-size="14.00" fill="#000000">r</text>
</g>
<!-- y&#45;&gt;r -->
<g id="edge6" class="edge">
<title>y&#45;&gt;r</title>
<path fill="none" stroke="#000000" d="M187,-215.8314C187,-208.131 187,-198.9743 187,-190.4166"/>
<polygon fill="#000000" stroke="#000000" points="190.5001,-190.4132 187,-180.4133 183.5001,-190.4133 190.5001,-190.4132"/>
</g>
<!-- w -->
<g id="node7" class="node">
<title>w</title>
<ellipse fill="none" stroke="#000000" cx="187" cy="-90" rx="27" ry="18"/>
<text text-anchor="middle" x="187" y="-86.3" font-family="Times,serif" font-size="14.00" fill="#000000">w</text>
</g>
<!-- r&#45;&gt;w -->
<g id="edge7" class="edge">
<title>r&#45;&gt;w</title>
<path fill="none" stroke="#000000" d="M187,-143.8314C187,-136.131 187,-126.9743 187,-118.4166"/>
<polygon fill="#000000" stroke="#000000" points="190.5001,-118.4132 187,-108.4133 183.5001,-118.4133 190.5001,-118.4132"/>
</g>
<!-- l -->
<g id="node8" class="node">
<title>l</title>
<ellipse fill="none" stroke="#000000" cx="170" cy="-18" rx="27" ry="18"/>
<text text-anchor="middle" x="170" y="-14.3" font-family="Times,serif" font-size="14.00" fill="#000000">l</text>
</g>
<!-- w&#45;&gt;l -->
<g id="edge8" class="edge">
<title>w&#45;&gt;l</title>
<path fill="none" stroke="#000000" d="M182.7978,-72.2022C180.9179,-64.2406 178.6575,-54.6671 176.5629,-45.7957"/>
<polygon fill="#000000" stroke="#000000" points="179.9172,-44.7706 174.2128,-35.8425 173.1045,-46.3792 179.9172,-44.7706"/>
</g>
<!-- k -->
<g id="node9" class="node">
<title>k</title>
<ellipse fill="none" stroke="#000000" cx="242" cy="-18" rx="27" ry="18"/>
<text text-anchor="middle" x="242" y="-14.3" font-family="Times,serif" font-size="14.00" fill="#000000">k</text>
</g>
<!-- w&#45;&gt;k -->
<g id="edge9" class="edge">
<title>w&#45;&gt;k</title>
<path fill="none" stroke="#000000" d="M199.4804,-73.6621C206.5124,-64.4564 215.4347,-52.7764 223.2883,-42.4953"/>
<polygon fill="#000000" stroke="#000000" points="226.28,-44.3446 229.569,-34.2733 220.7172,-40.0953 226.28,-44.3446"/>
</g>
<!-- k&#45;&gt;a -->
<g id="edge10" class="edge">
<title>k&#45;&gt;a</title>
<path fill="none" stroke="#000000" d="M242,-36.1854C242,-63.5017 242,-116.75 242,-162 242,-234 242,-234 242,-234 242,-274.8816 247.9877,-291.6438 223,-324 205.0616,-347.2281 174.4436,-361.2003 150.3791,-369.0935"/>
<polygon fill="#000000" stroke="#000000" points="149.0589,-365.8373 140.523,-372.1133 151.1097,-372.5302 149.0589,-365.8373"/>
</g>
</g>
</svg>
