<?xml version="1.0" encoding="UTF-8" standalone="no"?>
<!DOCTYPE svg PUBLIC "-//W3C//DTD SVG 1.1//EN"
 "http://www.w3.org/Graphics/SVG/1.1/DTD/svg11.dtd">
<!-- Generated by graphviz version 2.40.1 (20161225.0304)
 -->
<!-- Title: %3 Pages: 1 -->
<svg width="586pt" height="623pt"
 viewBox="0.00 0.00 586.00 622.98" xmlns="http://www.w3.org/2000/svg" xmlns:xlink="http://www.w3.org/1999/xlink">
<g id="graph0" class="graph" transform="scale(1 1) rotate(0) translate(36 586.9839)">
<title>%3</title>
<polygon fill="#ffffff" stroke="transparent" points="-36,36 -36,-586.9839 550,-586.9839 550,36 -36,36"/>
<g id="clust1" class="cluster">
<title>clusterStatic</title>
<polygon fill="none" stroke="#000000" points="8,-8 8,-542.9839 506,-542.9839 506,-8 8,-8"/>
<text text-anchor="middle" x="257" y="-15.8" font-family="Times,serif" font-size="14.00" fill="#000000">Static</text>
</g>
<g id="clust2" class="cluster">
<title>clusterPreLoop</title>
<polygon fill="none" stroke="#000000" points="16,-39 16,-422.8881 284,-422.8881 284,-39 16,-39"/>
<text text-anchor="middle" x="150" y="-46.8" font-family="Times,serif" font-size="14.00" fill="#000000">Preloop</text>
</g>
<g id="clust3" class="cluster">
<title>cluster_0</title>
<polygon fill="none" stroke="#000000" points="53,-70 53,-314.8881 276,-314.8881 276,-70 53,-70"/>
<text text-anchor="middle" x="164.5" y="-77.8" font-family="Times,serif" font-size="14.00" fill="#000000">Inside Loop</text>
</g>
<!-- _0 -->
<g id="node1" class="node">
<title>_0</title>
<ellipse fill="#c0c0c0" stroke="#000000" cx="144" cy="-510.936" rx="18" ry="18"/>
<text text-anchor="middle" x="144" y="-507.236" font-family="Times,serif" font-size="14.00" fill="#000000">0</text>
</g>
<!-- _1 -->
<g id="node2" class="node">
<title>_1</title>
<ellipse fill="#c0c0c0" stroke="#000000" cx="372" cy="-510.936" rx="18" ry="18"/>
<text text-anchor="middle" x="372" y="-507.236" font-family="Times,serif" font-size="14.00" fill="#000000">1</text>
</g>
<!-- _2 -->
<g id="node3" class="node">
<title>_2</title>
<ellipse fill="#c0c0c0" stroke="#000000" cx="480" cy="-510.936" rx="18" ry="18"/>
<text text-anchor="middle" x="480" y="-507.236" font-family="Times,serif" font-size="14.00" fill="#000000">2</text>
</g>
<!-- _300 -->
<g id="node4" class="node">
<title>_300</title>
<ellipse fill="#c0c0c0" stroke="#000000" cx="258" cy="-510.936" rx="24.0958" ry="24.0958"/>
<text text-anchor="middle" x="258" y="-507.236" font-family="Times,serif" font-size="14.00" fill="#000000">300</text>
</g>
<!-- b -->
<g id="node5" class="node">
<title>b</title>
<ellipse fill="#00ff00" stroke="#000000" cx="42" cy="-396.8881" rx="18" ry="18"/>
<text text-anchor="middle" x="42" y="-393.1881" font-family="Times,serif" font-size="14.00" fill="#000000">b</text>
</g>
<!-- b&#45;&gt;_0 -->
<g id="edge2" class="edge">
<title>b&#45;&gt;_0</title>
<path fill="none" stroke="#000000" d="M54.1013,-410.4188C71.6617,-430.0533 104.3703,-466.6253 125.1187,-489.8245"/>
<polygon fill="#000000" stroke="#000000" points="122.6392,-492.3024 131.9145,-497.4229 127.8569,-487.6359 122.6392,-492.3024"/>
</g>
<!-- a -->
<g id="node6" class="node">
<title>a</title>
<ellipse fill="#ff0000" stroke="#000000" cx="150" cy="-396.8881" rx="18" ry="18"/>
<text text-anchor="middle" x="150" y="-393.1881" font-family="Times,serif" font-size="14.00" fill="#000000">a</text>
</g>
<!-- a&#45;&gt;_0 -->
<g id="edge1" class="edge">
<title>a&#45;&gt;_0</title>
<path fill="none" stroke="#000000" d="M149.0493,-414.9593C148.0882,-433.228 146.5895,-461.714 145.4743,-482.913"/>
<polygon fill="#000000" stroke="#000000" points="141.9766,-482.7792 144.9463,-492.9493 148.9669,-483.147 141.9766,-482.7792"/>
</g>
<!-- c -->
<g id="node7" class="node">
<title>c</title>
<ellipse fill="#0000ff" stroke="#000000" cx="258" cy="-396.8881" rx="18" ry="18"/>
<text text-anchor="middle" x="258" y="-393.1881" font-family="Times,serif" font-size="14.00" fill="#000000">c</text>
</g>
<!-- c&#45;&gt;_0 -->
<g id="edge3" class="edge">
<title>c&#45;&gt;_0</title>
<path fill="none" stroke="#000000" d="M244.9228,-409.9709C225.1659,-429.736 187.5458,-467.3719 164.2351,-490.6924"/>
<polygon fill="#000000" stroke="#000000" points="161.5189,-488.4589 156.9247,-498.0058 166.4698,-493.4076 161.5189,-488.4589"/>
</g>
<!-- b2 -->
<g id="node8" class="node">
<title>b2</title>
<ellipse fill="#00ff00" stroke="#000000" cx="99" cy="-268.5415" rx="38.1938" ry="38.1938"/>
<text text-anchor="middle" x="99" y="-264.8415" font-family="Times,serif" font-size="14.00" fill="#000000">a + 300</text>
</g>
<!-- b2&#45;&gt;_300 -->
<g id="edge5" class="edge">
<title>b2&#45;&gt;_300</title>
<path fill="none" stroke="#000000" d="M131.4768,-289.4931C144.5345,-297.6837 159.8287,-306.9877 174,-314.8881 229.5538,-345.8593 268.5616,-324.7836 302,-378.8881 322.608,-412.2326 299.4313,-456.3402 279.6849,-484.1815"/>
<polygon fill="#000000" stroke="#000000" points="276.8384,-482.1445 273.7191,-492.2697 282.4718,-486.2996 276.8384,-482.1445"/>
</g>
<!-- b2&#45;&gt;a -->
<g id="edge4" class="edge">
<title>b2&#45;&gt;a</title>
<path fill="none" stroke="#000000" d="M113.2063,-304.2932C121.5893,-325.3897 132.0128,-351.6217 139.6229,-370.7732"/>
<polygon fill="#000000" stroke="#000000" points="136.3749,-372.0774 143.3204,-380.0781 142.8802,-369.4925 136.3749,-372.0774"/>
</g>
<!-- c2 -->
<g id="node9" class="node">
<title>c2</title>
<ellipse fill="#add8e6" stroke="#000000" cx="239" cy="-268.5415" rx="29.4969" ry="29.4969"/>
<text text-anchor="middle" x="239" y="-264.8415" font-family="Times,serif" font-size="14.00" fill="#000000">c + 1</text>
</g>
<!-- c2&#45;&gt;_1 -->
<g id="edge7" class="edge">
<title>c2&#45;&gt;_1</title>
<path fill="none" stroke="#000000" d="M254.5815,-293.9246C259.6448,-301.1339 265.6181,-308.6995 272,-314.8881 308.8129,-350.5861 343.1219,-334.0483 368,-378.8881 385.9574,-411.2542 382.8637,-455.2897 378.1238,-483.4192"/>
<polygon fill="#000000" stroke="#000000" points="374.6619,-482.8913 376.267,-493.3639 381.543,-484.1762 374.6619,-482.8913"/>
</g>
<!-- c2&#45;&gt;c -->
<g id="edge6" class="edge">
<title>c2&#45;&gt;c</title>
<path fill="none" stroke="#000000" d="M243.3114,-297.6654C246.4772,-319.0508 250.752,-347.9273 253.8735,-369.0132"/>
<polygon fill="#000000" stroke="#000000" points="250.4192,-369.5801 255.3459,-378.9598 257.3437,-368.555 250.4192,-369.5801"/>
</g>
<!-- d -->
<g id="node10" class="node">
<title>d</title>
<ellipse fill="#0000ff" stroke="#000000" cx="239" cy="-129.5975" rx="28.6953" ry="28.6953"/>
<text text-anchor="middle" x="239" y="-125.8975" font-family="Times,serif" font-size="14.00" fill="#000000">c * 2</text>
</g>
<!-- d&#45;&gt;_2 -->
<g id="edge9" class="edge">
<title>d&#45;&gt;_2</title>
<path fill="none" stroke="#000000" d="M254.855,-153.9308C268.0741,-174.2676 287.3642,-204.0579 304,-230.1949 364.2126,-324.7968 434.7764,-438.1098 465.0135,-486.7843"/>
<polygon fill="#000000" stroke="#000000" points="462.0948,-488.7187 470.3437,-495.3675 468.0415,-485.0259 462.0948,-488.7187"/>
</g>
<!-- d&#45;&gt;c2 -->
<g id="edge8" class="edge">
<title>d&#45;&gt;c2</title>
<path fill="none" stroke="#000000" d="M239,-158.3868C239,-178.6983 239,-206.1734 239,-228.6024"/>
<polygon fill="#000000" stroke="#000000" points="235.5001,-228.8304 239,-238.8304 242.5001,-228.8305 235.5001,-228.8304"/>
</g>
</g>
</svg>
