<?xml version="1.0" encoding="UTF-8" standalone="no"?>
<!DOCTYPE svg PUBLIC "-//W3C//DTD SVG 1.1//EN"
 "http://www.w3.org/Graphics/SVG/1.1/DTD/svg11.dtd">
<!-- Generated by graphviz version 2.40.1 (20161225.0304)
 -->
<!-- Title: G Pages: 1 -->
<svg width="900pt" height="723pt"
 viewBox="0.00 0.00 900.22 723.00" xmlns="http://www.w3.org/2000/svg" xmlns:xlink="http://www.w3.org/1999/xlink">
<g id="graph0" class="graph" transform="scale(1 1) rotate(0) translate(36 687)">
<title>G</title>
<polygon fill="#ffffff" stroke="transparent" points="-36,36 -36,-687 864.2207,-687 864.2207,36 -36,36"/>
<g id="clust1" class="cluster">
<title>cluster_0</title>
<polygon fill="none" stroke="#000000" points="79.8748,-8 79.8748,-263 455.8748,-263 455.8748,-8 79.8748,-8"/>
<text text-anchor="middle" x="267.8748" y="-247.8" font-family="Times,serif" font-size="14.00" fill="#000000">Before the loop</text>
</g>
<g id="clust2" class="cluster">
<title>cluster_1</title>
<polygon fill="none" stroke="#000000" points="250.8748,-368 250.8748,-443 626.8748,-443 626.8748,-368 250.8748,-368"/>
<text text-anchor="middle" x="438.8748" y="-427.8" font-family="Times,serif" font-size="14.00" fill="#000000">At the top of the loop</text>
</g>
<g id="clust3" class="cluster">
<title>cluster_2</title>
<polygon fill="none" stroke="#000000" points="338.8748,-548 338.8748,-643 788.8748,-643 788.8748,-548 338.8748,-548"/>
<text text-anchor="middle" x="563.8748" y="-627.8" font-family="Times,serif" font-size="14.00" fill="#000000">At the bottom of the loop</text>
</g>
<!-- 1 -->
<g id="node1" class="node">
<title>1</title>
<polygon fill="#00ff00" stroke="#000000" points="447.8748,-52 411.8748,-52 411.8748,-16 447.8748,-16 447.8748,-52"/>
<text text-anchor="middle" x="429.8748" y="-30.3" font-family="Times,serif" font-size="14.00" fill="#000000">1</text>
</g>
<!-- 2 -->
<g id="node2" class="node">
<title>2</title>
<polygon fill="#00ff00" stroke="#000000" points="123.8748,-52 87.8748,-52 87.8748,-16 123.8748,-16 123.8748,-52"/>
<text text-anchor="middle" x="105.8748" y="-30.3" font-family="Times,serif" font-size="14.00" fill="#000000">2</text>
</g>
<!-- 3 -->
<g id="node3" class="node">
<title>3</title>
<polygon fill="#00ff00" stroke="#000000" points="231.8748,-52 195.8748,-52 195.8748,-16 231.8748,-16 231.8748,-52"/>
<text text-anchor="middle" x="213.8748" y="-30.3" font-family="Times,serif" font-size="14.00" fill="#000000">3</text>
</g>
<!-- 4 -->
<g id="node4" class="node">
<title>4</title>
<polygon fill="#00ff00" stroke="#000000" points="339.8748,-52 303.8748,-52 303.8748,-16 339.8748,-16 339.8748,-52"/>
<text text-anchor="middle" x="321.8748" y="-30.3" font-family="Times,serif" font-size="14.00" fill="#000000">4</text>
</g>
<!-- a_out -->
<g id="node5" class="node">
<title>a_out</title>
<polygon fill="#d3d3d3" stroke="#000000" points="123.8748,-232 87.8748,-232 87.8748,-196 123.8748,-196 123.8748,-232"/>
<text text-anchor="middle" x="105.8748" y="-210.3" font-family="Times,serif" font-size="14.00" fill="#000000">0:a</text>
</g>
<!-- a_out&#45;&gt;1 -->
<g id="edge1" class="edge">
<title>a_out&#45;&gt;1</title>
<path fill="none" stroke="#000000" d="M124.2228,-203.8067C178.4658,-173.6717 338.2889,-84.8811 402.6053,-49.1497"/>
<polygon fill="#000000" stroke="#000000" points="404.6863,-51.9976 411.7281,-44.0815 401.2867,-45.8784 404.6863,-51.9976"/>
</g>
<!-- b_out -->
<g id="node6" class="node">
<title>b_out</title>
<polygon fill="#d3d3d3" stroke="#000000" points="231.8748,-232 195.8748,-232 195.8748,-196 231.8748,-196 231.8748,-232"/>
<text text-anchor="middle" x="213.8748" y="-210.3" font-family="Times,serif" font-size="14.00" fill="#000000">1:b</text>
</g>
<!-- b_out&#45;&gt;2 -->
<g id="edge2" class="edge">
<title>b_out&#45;&gt;2</title>
<path fill="none" stroke="#000000" d="M202.9249,-195.7501C183.7928,-163.8633 144.2017,-97.8781 121.953,-60.7969"/>
<polygon fill="#000000" stroke="#000000" points="124.8394,-58.8048 116.6932,-52.0306 118.837,-62.4063 124.8394,-58.8048"/>
</g>
<!-- c_out -->
<g id="node7" class="node">
<title>c_out</title>
<polygon fill="#d3d3d3" stroke="#000000" points="339.8748,-232 303.8748,-232 303.8748,-196 339.8748,-196 339.8748,-232"/>
<text text-anchor="middle" x="321.8748" y="-210.3" font-family="Times,serif" font-size="14.00" fill="#000000">2:c</text>
</g>
<!-- c_out&#45;&gt;3 -->
<g id="edge3" class="edge">
<title>c_out&#45;&gt;3</title>
<path fill="none" stroke="#000000" d="M310.9249,-195.7501C291.7928,-163.8633 252.2017,-97.8781 229.953,-60.7969"/>
<polygon fill="#000000" stroke="#000000" points="232.8394,-58.8048 224.6932,-52.0306 226.837,-62.4063 232.8394,-58.8048"/>
</g>
<!-- d_out -->
<g id="node8" class="node">
<title>d_out</title>
<polygon fill="#d3d3d3" stroke="#000000" points="447.8748,-232 411.8748,-232 411.8748,-196 447.8748,-196 447.8748,-232"/>
<text text-anchor="middle" x="429.8748" y="-210.3" font-family="Times,serif" font-size="14.00" fill="#000000">3:d</text>
</g>
<!-- d_out&#45;&gt;4 -->
<g id="edge4" class="edge">
<title>d_out&#45;&gt;4</title>
<path fill="none" stroke="#000000" d="M418.9249,-195.7501C399.7928,-163.8633 360.2017,-97.8781 337.953,-60.7969"/>
<polygon fill="#000000" stroke="#000000" points="340.8394,-58.8048 332.6932,-52.0306 334.837,-62.4063 340.8394,-58.8048"/>
</g>
<!-- a_preloop -->
<g id="node9" class="node">
<title>a_preloop</title>
<polygon fill="#d3d3d3" stroke="#000000" points="294.8748,-412 258.8748,-412 258.8748,-376 294.8748,-376 294.8748,-412"/>
<text text-anchor="middle" x="276.8748" y="-390.3" font-family="Times,serif" font-size="14.00" fill="#000000">0:a</text>
</g>
<!-- a_preloop&#45;&gt;1 -->
<g id="edge6" class="edge">
<title>a_preloop&#45;&gt;1</title>
<path fill="none" stroke="#000000" d="M258.4723,-388.1775C194.6034,-366.9885 -10.283,-290.2648 51.8748,-196 72.7208,-164.3863 318.6153,-73.9133 402.2392,-43.8477"/>
<polygon fill="#000000" stroke="#000000" points="403.5959,-47.0795 411.8278,-40.4096 401.2333,-40.4903 403.5959,-47.0795"/>
</g>
<!-- a_preloop&#45;&gt;a_out -->
<g id="edge5" class="edge">
<title>a_preloop&#45;&gt;a_out</title>
<path fill="none" stroke="#000000" d="M259.5374,-375.7501C228.8599,-343.4579 164.9601,-276.195 130.0019,-239.397"/>
<polygon fill="#000000" stroke="#000000" points="132.4289,-236.87 123.0039,-232.0306 127.3539,-241.6913 132.4289,-236.87"/>
</g>
<!-- b_preloop -->
<g id="node10" class="node">
<title>b_preloop</title>
<polygon fill="#d3d3d3" stroke="#000000" points="402.8748,-412 366.8748,-412 366.8748,-376 402.8748,-376 402.8748,-412"/>
<text text-anchor="middle" x="384.8748" y="-390.3" font-family="Times,serif" font-size="14.00" fill="#000000">1:b</text>
</g>
<!-- b_preloop&#45;&gt;1 -->
<g id="edge8" class="edge">
<title>b_preloop&#45;&gt;1</title>
<path fill="none" stroke="#000000" d="M403.1626,-377.5529C427.1113,-354.6485 467.9219,-310.5688 483.8748,-263 507.8328,-191.5613 469.2266,-104.1749 445.78,-60.9156"/>
<polygon fill="#000000" stroke="#000000" points="448.8132,-59.1683 440.8944,-52.1296 442.6954,-62.5702 448.8132,-59.1683"/>
</g>
<!-- b_preloop&#45;&gt;b_out -->
<g id="edge7" class="edge">
<title>b_preloop&#45;&gt;b_out</title>
<path fill="none" stroke="#000000" d="M367.5374,-375.7501C336.8599,-343.4579 272.9601,-276.195 238.0019,-239.397"/>
<polygon fill="#000000" stroke="#000000" points="240.4289,-236.87 231.0039,-232.0306 235.3539,-241.6913 240.4289,-236.87"/>
</g>
<!-- c_preloop -->
<g id="node11" class="node">
<title>c_preloop</title>
<polygon fill="#d3d3d3" stroke="#000000" points="510.8748,-412 474.8748,-412 474.8748,-376 510.8748,-376 510.8748,-412"/>
<text text-anchor="middle" x="492.8748" y="-390.3" font-family="Times,serif" font-size="14.00" fill="#000000">2:c</text>
</g>
<!-- c_preloop&#45;&gt;1 -->
<g id="edge10" class="edge">
<title>c_preloop&#45;&gt;1</title>
<path fill="none" stroke="#000000" d="M504.0155,-375.7818C524.0441,-340.6499 562.2322,-261.2429 541.8748,-196 524.8595,-141.468 482.3512,-89.1157 454.8713,-59.3237"/>
<polygon fill="#000000" stroke="#000000" points="457.2899,-56.7863 447.8933,-51.892 452.1868,-61.5779 457.2899,-56.7863"/>
</g>
<!-- c_preloop&#45;&gt;c_out -->
<g id="edge9" class="edge">
<title>c_preloop&#45;&gt;c_out</title>
<path fill="none" stroke="#000000" d="M475.5374,-375.7501C444.8599,-343.4579 380.9601,-276.195 346.0019,-239.397"/>
<polygon fill="#000000" stroke="#000000" points="348.4289,-236.87 339.0039,-232.0306 343.3539,-241.6913 348.4289,-236.87"/>
</g>
<!-- d_preloop -->
<g id="node12" class="node">
<title>d_preloop</title>
<polygon fill="#d3d3d3" stroke="#000000" points="618.8748,-412 582.8748,-412 582.8748,-376 618.8748,-376 618.8748,-412"/>
<text text-anchor="middle" x="600.8748" y="-390.3" font-family="Times,serif" font-size="14.00" fill="#000000">3:d</text>
</g>
<!-- d_preloop&#45;&gt;1 -->
<g id="edge12" class="edge">
<title>d_preloop&#45;&gt;1</title>
<path fill="none" stroke="#000000" d="M605.1807,-375.8338C612.7854,-339.7787 625.424,-257.3659 598.8748,-196 569.455,-127.9988 496.2357,-74.6961 456.5157,-49.6414"/>
<polygon fill="#000000" stroke="#000000" points="458.2272,-46.5847 447.88,-44.3071 454.5484,-52.5401 458.2272,-46.5847"/>
</g>
<!-- d_preloop&#45;&gt;d_out -->
<g id="edge11" class="edge">
<title>d_preloop&#45;&gt;d_out</title>
<path fill="none" stroke="#000000" d="M583.5374,-375.7501C552.8599,-343.4579 488.9601,-276.195 454.0019,-239.397"/>
<polygon fill="#000000" stroke="#000000" points="456.4289,-236.87 447.0039,-232.0306 451.3539,-241.6913 456.4289,-236.87"/>
</g>
<!-- a_loop -->
<g id="node13" class="node">
<title>a_loop</title>
<polygon fill="#d3d3d3" stroke="#000000" points="402.8748,-612 346.8748,-612 346.8748,-556 402.8748,-556 402.8748,-612"/>
<text text-anchor="middle" x="374.8748" y="-580.3" font-family="Times,serif" font-size="14.00" fill="#000000">0:b + 1</text>
</g>
<!-- a_loop&#45;&gt;1 -->
<g id="edge14" class="edge">
<title>a_loop&#45;&gt;1</title>
<path fill="none" stroke="#000000" d="M346.5529,-571.7373C245.0894,-526.0756 -88.422,-360.0893 22.8748,-196 34.3202,-179.1256 312.2829,-76.8101 402.1375,-44.0685"/>
<polygon fill="#000000" stroke="#000000" points="403.4623,-47.311 411.6622,-40.6018 401.0682,-40.7331 403.4623,-47.311"/>
</g>
<!-- a_loop&#45;&gt;b_preloop -->
<g id="edge13" class="edge">
<title>a_loop&#45;&gt;b_preloop</title>
<path fill="none" stroke="#000000" d="M376.3504,-555.9648C378.2361,-520.1358 381.4827,-458.4505 383.3784,-422.4318"/>
<polygon fill="#000000" stroke="#000000" points="386.8899,-422.3048 383.9204,-412.1346 379.8995,-421.9368 386.8899,-422.3048"/>
</g>
<!-- b_loop -->
<g id="node14" class="node">
<title>b_loop</title>
<polygon fill="#d3d3d3" stroke="#000000" points="530.8748,-612 474.8748,-612 474.8748,-556 530.8748,-556 530.8748,-612"/>
<text text-anchor="middle" x="502.8748" y="-580.3" font-family="Times,serif" font-size="14.00" fill="#000000">1:c + 1</text>
</g>
<!-- b_loop&#45;&gt;1 -->
<g id="edge16" class="edge">
<title>b_loop&#45;&gt;1</title>
<path fill="none" stroke="#000000" d="M531.0958,-565.476C564.7563,-541.6252 619.6353,-496.7803 644.8748,-443 691.6114,-343.4138 711.6351,-293.5967 660.8748,-196 617.4365,-112.4812 509.0279,-63.0599 457.6814,-43.611"/>
<polygon fill="#000000" stroke="#000000" points="458.8025,-40.2941 448.2091,-40.1196 456.3815,-46.8621 458.8025,-40.2941"/>
</g>
<!-- b_loop&#45;&gt;c_preloop -->
<g id="edge15" class="edge">
<title>b_loop&#45;&gt;c_preloop</title>
<path fill="none" stroke="#000000" d="M501.3993,-555.9648C499.5135,-520.1358 496.267,-458.4505 494.3712,-422.4318"/>
<polygon fill="#000000" stroke="#000000" points="497.8501,-421.9368 493.8293,-412.1346 490.8598,-422.3048 497.8501,-421.9368"/>
</g>
<!-- c_loop -->
<g id="node15" class="node">
<title>c_loop</title>
<polygon fill="#d3d3d3" stroke="#000000" points="658.8748,-612 602.8748,-612 602.8748,-556 658.8748,-556 658.8748,-612"/>
<text text-anchor="middle" x="630.8748" y="-580.3" font-family="Times,serif" font-size="14.00" fill="#000000">2:d + 1</text>
</g>
<!-- c_loop&#45;&gt;1 -->
<g id="edge18" class="edge">
<title>c_loop&#45;&gt;1</title>
<path fill="none" stroke="#000000" d="M651.5703,-555.5838C697.7213,-488.4362 799.5562,-316.5564 727.8748,-196 667.7042,-94.8029 519.755,-52.8625 457.8365,-39.3457"/>
<polygon fill="#000000" stroke="#000000" points="458.4934,-35.9074 447.9877,-37.2792 457.0559,-42.7582 458.4934,-35.9074"/>
</g>
<!-- c_loop&#45;&gt;d_preloop -->
<g id="edge17" class="edge">
<title>c_loop&#45;&gt;d_preloop</title>
<path fill="none" stroke="#000000" d="M626.4482,-555.9648C620.791,-520.1358 611.0512,-458.4505 605.3641,-422.4318"/>
<polygon fill="#000000" stroke="#000000" points="608.7551,-421.4664 603.7382,-412.1346 601.8407,-422.5581 608.7551,-421.4664"/>
</g>
<!-- d_loop -->
<g id="node16" class="node">
<title>d_loop</title>
<polygon fill="#d3d3d3" stroke="#000000" points="780.8748,-609 730.8748,-609 730.8748,-559 780.8748,-559 780.8748,-609"/>
<text text-anchor="middle" x="755.8748" y="-580.3" font-family="Times,serif" font-size="14.00" fill="#000000">3:d++</text>
</g>
<!-- d_loop&#45;&gt;1 -->
<g id="edge20" class="edge">
<title>d_loop&#45;&gt;1</title>
<path fill="none" stroke="#000000" d="M768.3487,-558.76C798.9355,-492.9137 869.8211,-312.9285 793.8748,-196 716.6451,-77.0956 529.726,-44.7433 458.2854,-36.5705"/>
<polygon fill="#000000" stroke="#000000" points="458.5422,-33.0781 448.2267,-35.4946 457.7977,-40.0384 458.5422,-33.0781"/>
</g>
<!-- d_loop&#45;&gt;d_preloop -->
<g id="edge19" class="edge">
<title>d_loop&#45;&gt;d_preloop</title>
<path fill="none" stroke="#000000" d="M735.292,-558.7695C705.8166,-522.6383 651.861,-456.4991 622.0575,-419.9658"/>
<polygon fill="#000000" stroke="#000000" points="624.7642,-417.7468 615.7308,-412.2106 619.3401,-422.1717 624.7642,-417.7468"/>
</g>
</g>
</svg>
