<?xml version="1.0" encoding="UTF-8" standalone="no"?>
<!DOCTYPE svg PUBLIC "-//W3C//DTD SVG 1.1//EN"
 "http://www.w3.org/Graphics/SVG/1.1/DTD/svg11.dtd">
<!-- Generated by graphviz version 2.40.1 (20161225.0304)
 -->
<!-- Title: G Pages: 1 -->
<svg width="206pt" height="116pt"
 viewBox="0.00 0.00 206.00 116.00" xmlns="http://www.w3.org/2000/svg" xmlns:xlink="http://www.w3.org/1999/xlink">
<g id="graph0" class="graph" transform="scale(1 1) rotate(0) translate(4 112)">
<title>G</title>
<polygon fill="#ffffff" stroke="transparent" points="-4,4 -4,-112 202,-112 202,4 -4,4"/>
<!-- 1 -->
<g id="node1" class="node">
<title>1</title>
<polygon fill="#00ff00" stroke="#000000" points="36,-36 0,-36 0,0 36,0 36,-36"/>
<text text-anchor="middle" x="18" y="-14.3" font-family="Times,serif" font-size="14.00" fill="#000000">1</text>
</g>
<!-- 2 -->
<g id="node2" class="node">
<title>2</title>
<polygon fill="#00ff00" stroke="#000000" points="90,-36 54,-36 54,0 90,0 90,-36"/>
<text text-anchor="middle" x="72" y="-14.3" font-family="Times,serif" font-size="14.00" fill="#000000">2</text>
</g>
<!-- 3 -->
<g id="node3" class="node">
<title>3</title>
<polygon fill="#00ff00" stroke="#000000" points="144,-36 108,-36 108,0 144,0 144,-36"/>
<text text-anchor="middle" x="126" y="-14.3" font-family="Times,serif" font-size="14.00" fill="#000000">3</text>
</g>
<!-- 4 -->
<g id="node4" class="node">
<title>4</title>
<polygon fill="#00ff00" stroke="#000000" points="198,-36 162,-36 162,0 198,0 198,-36"/>
<text text-anchor="middle" x="180" y="-14.3" font-family="Times,serif" font-size="14.00" fill="#000000">4</text>
</g>
<!-- a -->
<g id="node5" class="node">
<title>a</title>
<polygon fill="#d3d3d3" stroke="#000000" points="36,-108 0,-108 0,-72 36,-72 36,-108"/>
<text text-anchor="middle" x="18" y="-86.3" font-family="Times,serif" font-size="14.00" fill="#000000">a</text>
</g>
<!-- a&#45;&gt;1 -->
<g id="edge1" class="edge">
<title>a&#45;&gt;1</title>
<path fill="none" stroke="#000000" d="M18,-71.8314C18,-64.131 18,-54.9743 18,-46.4166"/>
<polygon fill="#000000" stroke="#000000" points="21.5001,-46.4132 18,-36.4133 14.5001,-46.4133 21.5001,-46.4132"/>
</g>
<!-- b -->
<g id="node6" class="node">
<title>b</title>
<polygon fill="#d3d3d3" stroke="#000000" points="90,-108 54,-108 54,-72 90,-72 90,-108"/>
<text text-anchor="middle" x="72" y="-86.3" font-family="Times,serif" font-size="14.00" fill="#000000">b</text>
</g>
<!-- b&#45;&gt;2 -->
<g id="edge2" class="edge">
<title>b&#45;&gt;2</title>
<path fill="none" stroke="#000000" d="M72,-71.8314C72,-64.131 72,-54.9743 72,-46.4166"/>
<polygon fill="#000000" stroke="#000000" points="75.5001,-46.4132 72,-36.4133 68.5001,-46.4133 75.5001,-46.4132"/>
</g>
<!-- c -->
<g id="node7" class="node">
<title>c</title>
<polygon fill="#d3d3d3" stroke="#000000" points="144,-108 108,-108 108,-72 144,-72 144,-108"/>
<text text-anchor="middle" x="126" y="-86.3" font-family="Times,serif" font-size="14.00" fill="#000000">c</text>
</g>
<!-- c&#45;&gt;3 -->
<g id="edge3" class="edge">
<title>c&#45;&gt;3</title>
<path fill="none" stroke="#000000" d="M126,-71.8314C126,-64.131 126,-54.9743 126,-46.4166"/>
<polygon fill="#000000" stroke="#000000" points="129.5001,-46.4132 126,-36.4133 122.5001,-46.4133 129.5001,-46.4132"/>
</g>
<!-- d -->
<g id="node8" class="node">
<title>d</title>
<polygon fill="#d3d3d3" stroke="#000000" points="198,-108 162,-108 162,-72 198,-72 198,-108"/>
<text text-anchor="middle" x="180" y="-86.3" font-family="Times,serif" font-size="14.00" fill="#000000">d</text>
</g>
<!-- d&#45;&gt;4 -->
<g id="edge4" class="edge">
<title>d&#45;&gt;4</title>
<path fill="none" stroke="#000000" d="M180,-71.8314C180,-64.131 180,-54.9743 180,-46.4166"/>
<polygon fill="#000000" stroke="#000000" points="183.5001,-46.4132 180,-36.4133 176.5001,-46.4133 183.5001,-46.4132"/>
</g>
</g>
</svg>
